  0
SECTION
  2
HEADER
  9
$ACADVER
  1
AC1024
  9
$ACADMAINTVER
 70
6
  9
$DWGCODEPAGE
  3
ANSI_1252
  9
$LASTSAVEDBY
  1
ezdxf
  9
$INSBASE
 10
0.0
 20
0.0
 30
0.0
  9
$EXTMIN
 10
-100
 20
-100
 30
-100
  9
$EXTMAX
 10
100
 20
100
 30
100
  9
$LIMMIN
 10
0.0
 20
0.0
  9
$LIMMAX
 10
420.0
 20
297.0
  9
$ORTHOMODE
 70
0
  9
$REGENMODE
 70
1
  9
$FILLMODE
 70
1
  9
$QTEXTMODE
 70
0
  9
$MIRRTEXT
 70
1
  9
$LTSCALE
 40
1.0
  9
$ATTMODE
 70
1
  9
$TEXTSIZE
 40
2.5
  9
$TRACEWID
 40
1.0
  9
$TEXTSTYLE
  7
Standard
  9
$CLAYER
  8
0
  9
$CELTYPE
  6
ByLayer
  9
$CECOLOR
 62
256
  9
$CELTSCALE
 40
1.0
  9
$DISPSILH
 70
0
  9
$DIMSCALE
 40
1.0
  9
$DIMASZ
 40
2.5
  9
$DIMEXO
 40
0.625
  9
$DIMDLI
 40
3.75
  9
$DIMRND
 40
0.0
  9
$DIMDLE
 40
0.0
  9
$DIMEXE
 40
1.25
  9
$DIMTP
 40
0.0
  9
$DIMTM
 40
0.0
  9
$DIMTXT
 40
2.5
  9
$DIMCEN
 40
2.5
  9
$DIMTSZ
 40
0.0
  9
$DIMTOL
 70
0
  9
$DIMLIM
 70
0
  9
$DIMTIH
 70
0
  9
$DIMTOH
 70
0
  9
$DIMSE1
 70
0
  9
$DIMSE2
 70
0
  9
$DIMTAD
 70
1
  9
$DIMZIN
 70
8
  9
$DIMBLK
  1

  9
$DIMASO
 70
1
  9
$DIMSHO
 70
1
  9
$DIMPOST
  1

  9
$DIMAPOST
  1

  9
$DIMALT
 70
0
  9
$DIMALTD
 70
3
  9
$DIMALTF
 40
0.03937007874
  9
$DIMLFAC
 40
1.0
  9
$DIMTOFL
 70
1
  9
$DIMTVP
 40
0.0
  9
$DIMTIX
 70
0
  9
$DIMSOXD
 70
0
  9
$DIMSAH
 70
0
  9
$DIMBLK1
  1

  9
$DIMBLK2
  1

  9
$DIMSTYLE
  2
ISO-25
  9
$DIMCLRD
 70
0
  9
$DIMCLRE
 70
0
  9
$DIMCLRT
 70
0
  9
$DIMTFAC
 40
1.0
  9
$DIMGAP
 40
0.625
  9
$DIMJUST
 70
0
  9
$DIMSD1
 70
0
  9
$DIMSD2
 70
0
  9
$DIMTOLJ
 70
0
  9
$DIMTZIN
 70
8
  9
$DIMALTZ
 70
0
  9
$DIMALTTZ
 70
0
  9
$DIMUPT
 70
0
  9
$DIMDEC
 70
2
  9
$DIMTDEC
 70
2
  9
$DIMALTU
 70
2
  9
$DIMALTTD
 70
3
  9
$DIMTXSTY
  7
Standard
  9
$DIMAUNIT
 70
0
  9
$DIMADEC
 70
0
  9
$DIMALTRND
 40
0.0
  9
$DIMAZIN
 70
0
  9
$DIMDSEP
 70
44
  9
$DIMATFIT
 70
3
  9
$DIMFRAC
 70
0
  9
$DIMLDRBLK
  1

  9
$DIMLUNIT
 70
2
  9
$DIMLWD
 70
-2
  9
$DIMLWE
 70
-2
  9
$DIMTMOVE
 70
0
  9
$DIMFXL
 40
1.0
  9
$DIMFXLON
 70
0
  9
$DIMJOGANG
 40
0.785398163397
  9
$DIMTFILL
 70
0
  9
$DIMTFILLCLR
 70
0
  9
$DIMARCSYM
 70
0
  9
$DIMLTYPE
  6

  9
$DIMLTEX1
  6

  9
$DIMLTEX2
  6

  9
$DIMTXTDIRECTION
 70
0
  9
$LUNITS
 70
2
  9
$LUPREC
 70
4
  9
$SKETCHINC
 40
1.0
  9
$FILLETRAD
 40
10.0
  9
$AUNITS
 70
0
  9
$AUPREC
 70
2
  9
$MENU
  1
.
  9
$ELEVATION
 40
0.0
  9
$PELEVATION
 40
0.0
  9
$THICKNESS
 40
0.0
  9
$LIMCHECK
 70
0
  9
$CHAMFERA
 40
0.0
  9
$CHAMFERB
 40
0.0
  9
$CHAMFERC
 40
0.0
  9
$CHAMFERD
 40
0.0
  9
$SKPOLY
 70
0
  9
$TDCREATE
 40
2458942.7591319443
  9
$TDUCREATE
 40
2458532.153996898
  9
$TDUPDATE
 40
2458942.7591319443
  9
$TDUUPDATE
 40
2458532.1544311
  9
$TDINDWG
 40
0.0
  9
$TDUSRTIMER
 40
0.0
  9
$USRTIMER
 70
1
  9
$ANGBASE
 50
0.0
  9
$ANGDIR
 70
0
  9
$PDMODE
 70
0
  9
$PDSIZE
 40
0.0
  9
$PLINEWID
 40
0.0
  9
$SPLFRAME
 70
0
  9
$SPLINETYPE
 70
6
  9
$SPLINESEGS
 70
8
  9
$HANDSEED
  5
236
  9
$SURFTAB1
 70
6
  9
$SURFTAB2
 70
6
  9
$SURFTYPE
 70
6
  9
$SURFU
 70
6
  9
$SURFV
 70
6
  9
$UCSBASE
  2

  9
$UCSNAME
  2

  9
$UCSORG
 10
0.0
 20
0.0
 30
0.0
  9
$UCSXDIR
 10
1.0
 20
0.0
 30
0.0
  9
$UCSYDIR
 10
0.0
 20
1.0
 30
0.0
  9
$UCSORTHOREF
  2

  9
$UCSORTHOVIEW
 70
0
  9
$UCSORGTOP
 10
0.0
 20
0.0
 30
0.0
  9
$UCSORGBOTTOM
 10
0.0
 20
0.0
 30
0.0
  9
$UCSORGLEFT
 10
0.0
 20
0.0
 30
0.0
  9
$UCSORGRIGHT
 10
0.0
 20
0.0
 30
0.0
  9
$UCSORGFRONT
 10
0.0
 20
0.0
 30
0.0
  9
$UCSORGBACK
 10
0.0
 20
0.0
 30
0.0
  9
$PUCSBASE
  2

  9
$PUCSNAME
  2

  9
$PUCSORG
 10
0.0
 20
0.0
 30
0.0
  9
$PUCSXDIR
 10
1.0
 20
0.0
 30
0.0
  9
$PUCSYDIR
 10
0.0
 20
1.0
 30
0.0
  9
$PUCSORTHOREF
  2

  9
$PUCSORTHOVIEW
 70
0
  9
$PUCSORGTOP
 10
0.0
 20
0.0
 30
0.0
  9
$PUCSORGBOTTOM
 10
0.0
 20
0.0
 30
0.0
  9
$PUCSORGLEFT
 10
0.0
 20
0.0
 30
0.0
  9
$PUCSORGRIGHT
 10
0.0
 20
0.0
 30
0.0
  9
$PUCSORGFRONT
 10
0.0
 20
0.0
 30
0.0
  9
$PUCSORGBACK
 10
0.0
 20
0.0
 30
0.0
  9
$USERI1
 70
0
  9
$USERI2
 70
0
  9
$USERI3
 70
0
  9
$USERI4
 70
0
  9
$USERI5
 70
0
  9
$USERR1
 40
0.0
  9
$USERR2
 40
0.0
  9
$USERR3
 40
0.0
  9
$USERR4
 40
0.0
  9
$USERR5
 40
0.0
  9
$WORLDVIEW
 70
1
  9
$SHADEDGE
 70
3
  9
$SHADEDIF
 70
70
  9
$TILEMODE
 70
1
  9
$MAXACTVP
 70
64
  9
$PINSBASE
 10
0.0
 20
0.0
 30
0.0
  9
$PLIMCHECK
 70
0
  9
$PEXTMIN
 10
1e+20
 20
1e+20
 30
1e+20
  9
$PEXTMAX
 10
-1e+20
 20
-1e+20
 30
-1e+20
  9
$PLIMMIN
 10
0.0
 20
0.0
  9
$PLIMMAX
 10
420.0
 20
297.0
  9
$UNITMODE
 70
0
  9
$VISRETAIN
 70
1
  9
$PLINEGEN
 70
0
  9
$PSLTSCALE
 70
1
  9
$TREEDEPTH
 70
3020
  9
$CMLSTYLE
  2
Standard
  9
$CMLJUST
 70
0
  9
$CMLSCALE
 40
20.0
  9
$PROXYGRAPHICS
 70
1
  9
$MEASUREMENT
 70
1
  9
$CELWEIGHT
370
-1
  9
$ENDCAPS
280
0
  9
$JOINSTYLE
280
0
  9
$LWDISPLAY
290
0
  9
$INSUNITS
 70
13
  9
$HYPERLINKBASE
  1

  9
$STYLESHEET
  1

  9
$XEDIT
290
1
  9
$CEPSNTYPE
380
0
  9
$PSTYLEMODE
290
1
  9
$FINGERPRINTGUID
  2
D81F975E-74FC-11EA-85EE-ACDE48001122
  9
$VERSIONGUID
  2
D823610E-74FC-11EA-85EE-ACDE48001122
  9
$EXTNAMES
290
1
  9
$PSVPSCALE
 40
0.0
  9
$OLESTARTUP
290
0
  9
$SORTENTS
280
127
  9
$INDEXCTL
280
0
  9
$HIDETEXT
280
1
  9
$XCLIPFRAME
280
2
  9
$HALOGAP
280
0
  9
$OBSCOLOR
 70
257
  9
$OBSLTYPE
280
0
  9
$INTERSECTIONDISPLAY
280
0
  9
$INTERSECTIONCOLOR
 70
257
  9
$DIMASSOC
280
2
  9
$PROJECTNAME
  1

  9
$CAMERADISPLAY
290
0
  9
$LENSLENGTH
 40
50.0
  9
$CAMERAHEIGHT
 40
0.0
  9
$STEPSPERSEC
 40
24.0
  9
$STEPSIZE
 40
100.0
  9
$3DDWFPREC
 40
2.0
  9
$PSOLWIDTH
 40
0.005
  9
$PSOLHEIGHT
 40
0.08
  9
$LOFTANG1
 40
1.570796326795
  9
$LOFTANG2
 40
1.570796326795
  9
$LOFTMAG1
 40
0.0
  9
$LOFTMAG2
 40
0.0
  9
$LOFTPARAM
 70
7
  9
$LOFTNORMALS
280
1
  9
$LATITUDE
 40
37.795
  9
$LONGITUDE
 40
-122.394
  9
$NORTHDIRECTION
 40
0.0
  9
$TIMEZONE
 70
-8000
  9
$LIGHTGLYPHDISPLAY
280
1
  9
$TILEMODELIGHTSYNCH
280
1
  9
$CMATERIAL
347
20
  9
$SOLIDHIST
280
0
  9
$SHOWHIST
280
1
  9
$DWFFRAME
280
2
  9
$DGNFRAME
280
2
  9
$REALWORLDSCALE
290
1
  9
$INTERFERECOLOR
 62
256
  9
$CSHADOW
280
0
  9
$SHADOWPLANELOCATION
 40
0.0
  0
ENDSEC
  0
SECTION
  2
CLASSES
  0
CLASS
  1
ACDBDICTIONARYWDFLT
  2
AcDbDictionaryWithDefault
  3
ObjectDBX Classes
 90
0
 91
0
280
0
281
0
  0
CLASS
  1
SUN
  2
AcDbSun
  3
SCENEOE
 90
1153
 91
0
280
0
281
0
  0
CLASS
  1
VISUALSTYLE
  2
AcDbVisualStyle
  3
ObjectDBX Classes
 90
4095
 91
0
280
0
281
0
  0
CLASS
  1
MATERIAL
  2
AcDbMaterial
  3
ObjectDBX Classes
 90
1153
 91
0
280
0
281
0
  0
CLASS
  1
SCALE
  2
AcDbScale
  3
ObjectDBX Classes
 90
1153
 91
0
280
0
281
0
  0
CLASS
  1
TABLESTYLE
  2
AcDbTableStyle
  3
ObjectDBX Classes
 90
4095
 91
0
280
0
281
0
  0
CLASS
  1
MLEADERSTYLE
  2
AcDbMLeaderStyle
  3
ACDB_MLEADERSTYLE_CLASS
 90
4095
 91
0
280
0
281
0
  0
CLASS
  1
DICTIONARYVAR
  2
AcDbDictionaryVar
  3
ObjectDBX Classes
 90
0
 91
0
280
0
281
0
  0
CLASS
  1
CELLSTYLEMAP
  2
AcDbCellStyleMap
  3
ObjectDBX Classes
 90
1152
 91
0
280
0
281
0
  0
CLASS
  1
MENTALRAYRENDERSETTINGS
  2
AcDbMentalRayRenderSettings
  3
SCENEOE
 90
1024
 91
0
280
0
281
0
  0
CLASS
  1
ACDBDETAILVIEWSTYLE
  2
AcDbDetailViewStyle
  3
ObjectDBX Classes
 90
1025
 91
0
280
0
281
0
  0
CLASS
  1
ACDBSECTIONVIEWSTYLE
  2
AcDbSectionViewStyle
  3
ObjectDBX Classes
 90
1025
 91
0
280
0
281
0
  0
CLASS
  1
RASTERVARIABLES
  2
AcDbRasterVariables
  3
ISM
 90
0
 91
0
280
0
281
0
  0
CLASS
  1
ACDBPLACEHOLDER
  2
AcDbPlaceHolder
  3
ObjectDBX Classes
 90
0
 91
0
280
0
281
0
  0
CLASS
  1
LAYOUT
  2
AcDbLayout
  3
ObjectDBX Classes
 90
0
 91
0
280
0
281
0
  0
ENDSEC
  0
SECTION
  2
TABLES
  0
TABLE
  2
VPORT
  5
8
330
0
100
AcDbSymbolTable
 70
1
  0
VPORT
  5
23
330
8
100
AcDbSymbolTableRecord
100
AcDbViewportTableRecord
  2
*Active
 70
0
 10
0.0
 20
0.0
 11
1.0
 21
1.0
 12
70.0
 22
50.0
 13
0.0
 23
0.0
 14
0.5
 24
0.5
 15
0.5
 25
0.5
 16
0.0
 26
0.0
 36
1.0
 17
0.0
 27
0.0
 37
0.0
 40
1.0
 41
1.34
 42
50.0
 43
0.0
 44
0.0
 50
0.0
 51
0.0
 71
0
 72
1000
 73
1
 74
3
 75
0
 76
0
 77
0
 78
0
281
0
 65
0
146
0.0
  0
ENDTAB
  0
TABLE
  2
LTYPE
  5
2
330
0
100
AcDbSymbolTable
 70
3
  0
LTYPE
  5
24
330
2
100
AcDbSymbolTableRecord
100
AcDbLinetypeTableRecord
  2
ByBlock
 70
0
  3

 72
65
 73
0
 40
0.0
  0
LTYPE
  5
25
330
2
100
AcDbSymbolTableRecord
100
AcDbLinetypeTableRecord
  2
ByLayer
 70
0
  3

 72
65
 73
0
 40
0.0
  0
LTYPE
  5
26
330
2
100
AcDbSymbolTableRecord
100
AcDbLinetypeTableRecord
  2
Continuous
 70
0
  3

 72
65
 73
0
 40
0.0
  0
ENDTAB
  0
TABLE
  2
LAYER
  5
1
330
0
100
AcDbSymbolTable
 70
3
  0
LAYER
  5
27
330
1
100
AcDbSymbolTableRecord
100
AcDbLayerTableRecord
  2
0
 70
0
 62
7
  6
Continuous
370
-3
390
13
347
21
  0
LAYER
  5
28
330
1
100
AcDbSymbolTableRecord
100
AcDbLayerTableRecord
  2
Defpoints
 70
0
 62
7
  6
Continuous
290
0
370
-3
390
13
347
21
  0
LAYER
  5
2D
330
1
100
AcDbSymbolTableRecord
100
AcDbLayerTableRecord
  2
TEXTLAYER
 70
0
 62
2
  6
Continuous
370
-3
390
13
347
21
  0
ENDTAB
  0
TABLE
  2
STYLE
  5
5
330
0
100
AcDbSymbolTable
 70
1
  0
STYLE
  5
29
330
5
100
AcDbSymbolTableRecord
100
AcDbTextStyleTableRecord
  2
Standard
 70
0
 40
0.0
 41
1.0
 50
0.0
 71
0
 42
2.5
  3
txt
  4

  0
ENDTAB
  0
TABLE
  2
VIEW
  5
7
330
0
100
AcDbSymbolTable
 70
0
  0
ENDTAB
  0
TABLE
  2
UCS
  5
6
330
0
100
AcDbSymbolTable
 70
0
  0
ENDTAB
  0
TABLE
  2
APPID
  5
3
330
0
100
AcDbSymbolTable
 70
1
  0
APPID
  5
2A
330
3
100
AcDbSymbolTableRecord
100
AcDbRegAppTableRecord
  2
ACAD
 70
0
  0
ENDTAB
  0
TABLE
  2
DIMSTYLE
  5
4
330
0
100
AcDbSymbolTable
 70
1
100
AcDbDimStyleTable
  0
DIMSTYLE
105
2B
330
4
100
AcDbSymbolTableRecord
100
AcDbDimStyleTableRecord
  2
Standard
 70
0
 40
1.0
 41
2.5
 42
0.625
 43
3.75
 44
1.25
 45
0.0
 46
0.0
 47
0.0
 48
0.0
 49
2.5
140
2.5
141
2.5
142
0.0
143
0.03937007874
144
1.0
145
0.0
146
1.0
147
0.625
148
0.0
 69
0
 70
0
 71
0
 72
0
 73
0
 74
0
 75
0
 76
0
 77
1
 78
8
 79
0
170
0
171
3
172
1
173
0
174
0
175
0
176
0
177
0
178
0
179
0
271
0
272
2
273
2
274
3
275
0
276
0
277
2
278
44
279
0
280
0
281
0
282
0
283
0
284
8
285
0
286
0
288
0
289
3
290
0
371
-2
372
-2
  0
ENDTAB
  0
TABLE
  2
BLOCK_RECORD
  5
9
330
0
100
AcDbSymbolTable
 70
2
  0
BLOCK_RECORD
  5
17
330
9
100
AcDbSymbolTableRecord
100
AcDbBlockTableRecord
  2
*Model_Space
340
1A
 70
0
280
1
281
1
  0
BLOCK_RECORD
  5
1B
330
9
100
AcDbSymbolTableRecord
100
AcDbBlockTableRecord
  2
*Paper_Space
340
1E
 70
0
280
1
281
1
  0
ENDTAB
  0
ENDSEC
  0
SECTION
  2
BLOCKS
  0
BLOCK
  5
18
330
17
100
AcDbEntity
  8
0
100
AcDbBlockBegin
  2
*Model_Space
 70
0
 10
0.0
 20
0.0
 30
0.0
  3
*Model_Space
  1

  0
ENDBLK
  5
19
330
17
100
AcDbEntity
  8
0
100
AcDbBlockEnd
  0
BLOCK
  5
1C
330
1B
100
AcDbEntity
  8
0
100
AcDbBlockBegin
  2
*Paper_Space
 70
0
 10
0.0
 20
0.0
 30
0.0
  3
*Paper_Space
  1

  0
ENDBLK
  5
1D
330
1B
100
AcDbEntity
  8
0
100
AcDbBlockEnd
  0
ENDSEC
  0
SECTION
  2
ENTITIES
  0
ARC
  5
2E
330
17
100
AcDbEntity
  8
0
100
AcDbCircle
 10
0.0
 20
1500.0
 30
0.0
 40
500.0
100
AcDbArc
 50
-90.0
 51
90.0
  0
CIRCLE
  5
2F
330
17
100
AcDbEntity
  8
0
100
AcDbCircle
 10
2000.0
 20
1500.0
 30
0.0
 40
500.0
  0
CIRCLE
  5
30
330
17
100
AcDbEntity
  8
0
100
AcDbCircle
 10
4000.0
 20
1500.0
 30
0.0
 40
500.0
  0
CIRCLE
  5
31
330
17
100
AcDbEntity
  8
0
100
AcDbCircle
 10
6000.0
 20
1500.0
 30
0.0
 40
500.0
  0
ARC
  5
32
330
17
100
AcDbEntity
  8
0
100
AcDbCircle
 10
104.76230847524312
 20
4500.0
 30
0.0
 40
500.0
100
AcDbArc
 50
-102.09449504655088
 51
102.09449504655088
  0
CIRCLE
  5
33
330
17
100
AcDbEntity
  8
0
100
AcDbCircle
 10
2104.762308475243
 20
4500.0
 30
0.0
 40
500.0
  0
CIRCLE
  5
34
330
17
100
AcDbEntity
  8
0
100
AcDbCircle
 10
4104.762308475243
 20
4500.0
 30
0.0
 40
500.0
  0
CIRCLE
  5
35
330
17
100
AcDbEntity
  8
0
100
AcDbCircle
 10
6104.762308475243
 20
4500.0
 30
0.0
 40
500.0
  0
ARC
  5
36
330
17
100
AcDbEntity
  8
0
100
AcDbCircle
 10
209.52461695048623
 20
7500.0
 30
0.0
 40
500.0
100
AcDbArc
 50
-114.77457619653714
 51
114.77457619653714
  0
CIRCLE
  5
37
330
17
100
AcDbEntity
  8
0
100
AcDbCircle
 10
2209.5246169504862
 20
7500.0
 30
0.0
 40
500.0
  0
CIRCLE
  5
38
330
17
100
AcDbEntity
  8
0
100
AcDbCircle
 10
4209.524616950486
 20
7500.0
 30
0.0
 40
500.0
  0
CIRCLE
  5
39
330
17
100
AcDbEntity
  8
0
100
AcDbCircle
 10
6209.524616950486
 20
7500.0
 30
0.0
 40
500.0
  0
ARC
  5
3A
330
17
100
AcDbEntity
  8
0
100
AcDbCircle
 10
314.28692542572935
 20
10500.0
 30
0.0
 40
500.0
100
AcDbArc
 50
-128.9449820399521
 51
128.9449820399521
  0
CIRCLE
  5
3B
330
17
100
AcDbEntity
  8
0
100
AcDbCircle
 10
2314.2869254257294
 20
10500.0
 30
0.0
 40
500.0
  0
CIRCLE
  5
3C
330
17
100
AcDbEntity
  8
0
100
AcDbCircle
 10
4314.286925425729
 20
10500.0
 30
0.0
 40
500.0
  0
CIRCLE
  5
3D
330
17
100
AcDbEntity
  8
0
100
AcDbCircle
 10
6314.286925425729
 20
10500.0
 30
0.0
 40
500.0
  0
ARC
  5
3E
330
17
100
AcDbEntity
  8
0
100
AcDbCircle
 10
419.0492339009729
 20
13500.0
 30
0.0
 40
500.0
100
AcDbArc
 50
-146.93986390926915
 51
146.93986390926915
  0
CIRCLE
  5
3F
330
17
100
AcDbEntity
  8
0
100
AcDbCircle
 10
2419.0492339009725
 20
13500.0
 30
0.0
 40
500.0
  0
CIRCLE
  5
40
330
17
100
AcDbEntity
  8
0
100
AcDbCircle
 10
4419.0492339009725
 20
13500.0
 30
0.0
 40
500.0
  0
CIRCLE
  5
41
330
17
100
AcDbEntity
  8
0
100
AcDbCircle
 10
6419.0492339009725
 20
13500.0
 30
0.0
 40
500.0
  0
CIRCLE
  5
42
330
17
100
AcDbEntity
  8
0
100
AcDbCircle
 10
523.811542376216
 20
16500.0
 30
0.0
 40
500.0
  0
CIRCLE
  5
43
330
17
100
AcDbEntity
  8
0
100
AcDbCircle
 10
2523.8115423762156
 20
16500.0
 30
0.0
 40
500.0
  0
CIRCLE
  5
44
330
17
100
AcDbEntity
  8
0
100
AcDbCircle
 10
4523.811542376216
 20
16500.0
 30
0.0
 40
500.0
  0
CIRCLE
  5
45
330
17
100
AcDbEntity
  8
0
100
AcDbCircle
 10
6523.811542376216
 20
16500.0
 30
0.0
 40
500.0
  0
CIRCLE
  5
46
330
17
100
AcDbEntity
  8
0
100
AcDbCircle
 10
628.5738508514592
 20
19500.0
 30
0.0
 40
500.0
  0
CIRCLE
  5
47
330
17
100
AcDbEntity
  8
0
100
AcDbCircle
 10
2628.5738508514587
 20
19500.0
 30
0.0
 40
500.0
  0
CIRCLE
  5
48
330
17
100
AcDbEntity
  8
0
100
AcDbCircle
 10
4628.573850851459
 20
19500.0
 30
0.0
 40
500.0
  0
CIRCLE
  5
49
330
17
100
AcDbEntity
  8
0
100
AcDbCircle
 10
6628.573850851459
 20
19500.0
 30
0.0
 40
500.0
  0
CIRCLE
  5
4A
330
17
100
AcDbEntity
  8
0
100
AcDbCircle
 10
733.3361593267023
 20
22500.0
 30
0.0
 40
500.0
  0
CIRCLE
  5
4B
330
17
100
AcDbEntity
  8
0
100
AcDbCircle
 10
2733.336159326702
 20
22500.0
 30
0.0
 40
500.0
  0
CIRCLE
  5
4C
330
17
100
AcDbEntity
  8
0
100
AcDbCircle
 10
4733.336159326702
 20
22500.0
 30
0.0
 40
500.0
  0
CIRCLE
  5
4D
330
17
100
AcDbEntity
  8
0
100
AcDbCircle
 10
6733.336159326702
 20
22500.0
 30
0.0
 40
500.0
  0
CIRCLE
  5
4E
330
17
100
AcDbEntity
  8
0
100
AcDbCircle
 10
838.0984678019454
 20
25500.0
 30
0.0
 40
500.0
  0
CIRCLE
  5
4F
330
17
100
AcDbEntity
  8
0
100
AcDbCircle
 10
2838.098467801946
 20
25500.0
 30
0.0
 40
500.0
  0
CIRCLE
  5
50
330
17
100
AcDbEntity
  8
0
100
AcDbCircle
 10
4838.098467801946
 20
25500.0
 30
0.0
 40
500.0
  0
CIRCLE
  5
51
330
17
100
AcDbEntity
  8
0
100
AcDbCircle
 10
6838.098467801945
 20
25500.0
 30
0.0
 40
500.0
  0
CIRCLE
  5
52
330
17
100
AcDbEntity
  8
0
100
AcDbCircle
 10
942.860776277189
 20
28500.0
 30
0.0
 40
500.0
  0
CIRCLE
  5
53
330
17
100
AcDbEntity
  8
0
100
AcDbCircle
 10
2942.860776277189
 20
28500.0
 30
0.0
 40
500.0
  0
CIRCLE
  5
54
330
17
100
AcDbEntity
  8
0
100
AcDbCircle
 10
4942.860776277189
 20
28500.0
 30
0.0
 40
500.0
  0
CIRCLE
  5
55
330
17
100
AcDbEntity
  8
0
100
AcDbCircle
 10
6942.860776277188
 20
28500.0
 30
0.0
 40
500.0
  0
CIRCLE
  5
56
330
17
100
AcDbEntity
  8
0
100
AcDbCircle
 10
1047.623084752432
 20
31500.0
 30
0.0
 40
500.0
  0
CIRCLE
  5
57
330
17
100
AcDbEntity
  8
0
100
AcDbCircle
 10
3047.623084752432
 20
31500.0
 30
0.0
 40
500.0
  0
CIRCLE
  5
58
330
17
100
AcDbEntity
  8
0
100
AcDbCircle
 10
5047.623084752432
 20
31500.0
 30
0.0
 40
500.0
  0
CIRCLE
  5
59
330
17
100
AcDbEntity
  8
0
100
AcDbCircle
 10
7047.623084752431
 20
31500.0
 30
0.0
 40
500.0
  0
CIRCLE
  5
5A
330
17
100
AcDbEntity
  8
0
100
AcDbCircle
 10
1152.3853932276752
 20
34500.0
 30
0.0
 40
500.0
  0
CIRCLE
  5
5B
330
17
100
AcDbEntity
  8
0
100
AcDbCircle
 10
3152.385393227675
 20
34500.0
 30
0.0
 40
500.0
  0
CIRCLE
  5
5C
330
17
100
AcDbEntity
  8
0
100
AcDbCircle
 10
5152.385393227675
 20
34500.0
 30
0.0
 40
500.0
  0
CIRCLE
  5
5D
330
17
100
AcDbEntity
  8
0
100
AcDbCircle
 10
7152.385393227674
 20
34500.0
 30
0.0
 40
500.0
  0
CIRCLE
  5
5E
330
17
100
AcDbEntity
  8
0
100
AcDbCircle
 10
1257.1477017029183
 20
37500.0
 30
0.0
 40
500.0
  0
CIRCLE
  5
5F
330
17
100
AcDbEntity
  8
0
100
AcDbCircle
 10
3257.1477017029183
 20
37500.0
 30
0.0
 40
500.0
  0
CIRCLE
  5
60
330
17
100
AcDbEntity
  8
0
100
AcDbCircle
 10
5257.147701702918
 20
37500.0
 30
0.0
 40
500.0
  0
CIRCLE
  5
61
330
17
100
AcDbEntity
  8
0
100
AcDbCircle
 10
7257.147701702917
 20
37500.0
 30
0.0
 40
500.0
  0
CIRCLE
  5
62
330
17
100
AcDbEntity
  8
0
100
AcDbCircle
 10
1361.9100101781614
 20
40500.0
 30
0.0
 40
500.0
  0
CIRCLE
  5
63
330
17
100
AcDbEntity
  8
0
100
AcDbCircle
 10
3361.9100101781614
 20
40500.0
 30
0.0
 40
500.0
  0
CIRCLE
  5
64
330
17
100
AcDbEntity
  8
0
100
AcDbCircle
 10
5361.910010178161
 20
40500.0
 30
0.0
 40
500.0
  0
CIRCLE
  5
65
330
17
100
AcDbEntity
  8
0
100
AcDbCircle
 10
7361.910010178162
 20
40500.0
 30
0.0
 40
500.0
  0
CIRCLE
  5
66
330
17
100
AcDbEntity
  8
0
100
AcDbCircle
 10
1466.6723186534045
 20
43500.0
 30
0.0
 40
500.0
  0
CIRCLE
  5
67
330
17
100
AcDbEntity
  8
0
100
AcDbCircle
 10
3466.6723186534045
 20
43500.0
 30
0.0
 40
500.0
  0
CIRCLE
  5
68
330
17
100
AcDbEntity
  8
0
100
AcDbCircle
 10
5466.672318653405
 20
43500.0
 30
0.0
 40
500.0
  0
CIRCLE
  5
69
330
17
100
AcDbEntity
  8
0
100
AcDbCircle
 10
7466.672318653404
 20
43500.0
 30
0.0
 40
500.0
  0
ARC
  5
6A
330
17
100
AcDbEntity
  8
0
100
AcDbCircle
 10
-428.5653728713521
 20
46500.0
 30
0.0
 40
500.0
100
AcDbArc
 50
-31.004066342493957
 51
31.004066342493957
  0
CIRCLE
  5
6B
330
17
100
AcDbEntity
  8
0
100
AcDbCircle
 10
1571.4346271286477
 20
46500.0
 30
0.0
 40
500.0
  0
CIRCLE
  5
6C
330
17
100
AcDbEntity
  8
0
100
AcDbCircle
 10
3571.4346271286477
 20
46500.0
 30
0.0
 40
500.0
  0
CIRCLE
  5
6D
330
17
100
AcDbEntity
  8
0
100
AcDbCircle
 10
5571.434627128648
 20
46500.0
 30
0.0
 40
500.0
  0
CIRCLE
  5
6E
330
17
100
AcDbEntity
  8
0
100
AcDbCircle
 10
7571.434627128649
 20
46500.0
 30
0.0
 40
500.0
  0
ARC
  5
6F
330
17
100
AcDbEntity
  8
0
100
AcDbCircle
 10
-323.803064396109
 20
49500.0
 30
0.0
 40
500.0
100
AcDbArc
 50
-49.638643543714835
 51
49.638643543714835
  0
CIRCLE
  5
70
330
17
100
AcDbEntity
  8
0
100
AcDbCircle
 10
1676.1969356038908
 20
49500.0
 30
0.0
 40
500.0
  0
CIRCLE
  5
71
330
17
100
AcDbEntity
  8
0
100
AcDbCircle
 10
3676.196935603891
 20
49500.0
 30
0.0
 40
500.0
  0
CIRCLE
  5
72
330
17
100
AcDbEntity
  8
0
100
AcDbCircle
 10
5676.196935603891
 20
49500.0
 30
0.0
 40
500.0
  0
CIRCLE
  5
73
330
17
100
AcDbEntity
  8
0
100
AcDbCircle
 10
7676.196935603892
 20
49500.0
 30
0.0
 40
500.0
  0
ARC
  5
74
330
17
100
AcDbEntity
  8
0
100
AcDbCircle
 10
-219.04075592086588
 20
52500.0
 30
0.0
 40
500.0
100
AcDbArc
 50
-64.01846202311529
 51
64.01846202311529
  0
CIRCLE
  5
75
330
17
100
AcDbEntity
  8
0
100
AcDbCircle
 10
1780.959244079134
 20
52500.0
 30
0.0
 40
500.0
  0
CIRCLE
  5
76
330
17
100
AcDbEntity
  8
0
100
AcDbCircle
 10
3780.959244079134
 20
52500.0
 30
0.0
 40
500.0
  0
CIRCLE
  5
77
330
17
100
AcDbEntity
  8
0
100
AcDbCircle
 10
5780.959244079134
 20
52500.0
 30
0.0
 40
500.0
  0
CIRCLE
  5
78
330
17
100
AcDbEntity
  8
0
100
AcDbCircle
 10
7780.959244079135
 20
52500.0
 30
0.0
 40
500.0
  0
ARC
  5
79
330
17
100
AcDbEntity
  8
0
100
AcDbCircle
 10
-114.27844744562253
 20
55500.0
 30
0.0
 40
500.0
100
AcDbArc
 50
-76.78787500076304
 51
76.78787500076304
  0
CIRCLE
  5
7A
330
17
100
AcDbEntity
  8
0
100
AcDbCircle
 10
1885.7215525543775
 20
55500.0
 30
0.0
 40
500.0
  0
CIRCLE
  5
7B
330
17
100
AcDbEntity
  8
0
100
AcDbCircle
 10
3885.721552554378
 20
55500.0
 30
0.0
 40
500.0
  0
CIRCLE
  5
7C
330
17
100
AcDbEntity
  8
0
100
AcDbCircle
 10
5885.721552554378
 20
55500.0
 30
0.0
 40
500.0
  0
CIRCLE
  5
7D
330
17
100
AcDbEntity
  8
0
100
AcDbCircle
 10
7885.721552554378
 20
55500.0
 30
0.0
 40
500.0
  0
ARC
  5
7E
330
17
100
AcDbEntity
  8
0
100
AcDbCircle
 10
-9.516138970379416
 20
58500.0
 30
0.0
 40
500.0
100
AcDbArc
 50
-88.90946495573378
 51
88.90946495573378
  0
CIRCLE
  5
7F
330
17
100
AcDbEntity
  8
0
100
AcDbCircle
 10
1990.4838610296206
 20
58500.0
 30
0.0
 40
500.0
  0
CIRCLE
  5
80
330
17
100
AcDbEntity
  8
0
100
AcDbCircle
 10
3990.483861029621
 20
58500.0
 30
0.0
 40
500.0
  0
CIRCLE
  5
81
330
17
100
AcDbEntity
  8
0
100
AcDbCircle
 10
5990.483861029621
 20
58500.0
 30
0.0
 40
500.0
  0
CIRCLE
  5
82
330
17
100
AcDbEntity
  8
0
100
AcDbCircle
 10
7990.483861029621
 20
58500.0
 30
0.0
 40
500.0
  0
ARC
  5
83
330
17
100
AcDbEntity
  8
0
100
AcDbCircle
 10
95.2461695048637
 20
61500.0
 30
0.0
 40
500.0
100
AcDbArc
 50
-100.981517927365
 51
100.981517927365
  0
CIRCLE
  5
84
330
17
100
AcDbEntity
  8
0
100
AcDbCircle
 10
2095.2461695048637
 20
61500.0
 30
0.0
 40
500.0
  0
CIRCLE
  5
85
330
17
100
AcDbEntity
  8
0
100
AcDbCircle
 10
4095.246169504864
 20
61500.0
 30
0.0
 40
500.0
  0
CIRCLE
  5
86
330
17
100
AcDbEntity
  8
0
100
AcDbCircle
 10
6095.246169504864
 20
61500.0
 30
0.0
 40
500.0
  0
ARC
  5
87
330
17
100
AcDbEntity
  8
0
100
AcDbCircle
 10
200.00847798010682
 20
64500.0
 30
0.0
 40
500.0
100
AcDbArc
 50
-113.57923848129253
 51
113.57923848129253
  0
CIRCLE
  5
88
330
17
100
AcDbEntity
  8
0
100
AcDbCircle
 10
2200.0084779801073
 20
64500.0
 30
0.0
 40
500.0
  0
CIRCLE
  5
89
330
17
100
AcDbEntity
  8
0
100
AcDbCircle
 10
4200.008477980107
 20
64500.0
 30
0.0
 40
500.0
  0
CIRCLE
  5
8A
330
17
100
AcDbEntity
  8
0
100
AcDbCircle
 10
6200.008477980107
 20
64500.0
 30
0.0
 40
500.0
  0
ARC
  5
8B
330
17
100
AcDbEntity
  8
0
100
AcDbCircle
 10
304.77078645534993
 20
67500.0
 30
0.0
 40
500.0
100
AcDbArc
 50
-127.55636307871342
 51
127.55636307871342
  0
CIRCLE
  5
8C
330
17
100
AcDbEntity
  8
0
100
AcDbCircle
 10
2304.7707864553504
 20
67500.0
 30
0.0
 40
500.0
  0
CIRCLE
  5
8D
330
17
100
AcDbEntity
  8
0
100
AcDbCircle
 10
4304.77078645535
 20
67500.0
 30
0.0
 40
500.0
  0
CIRCLE
  5
8E
330
17
100
AcDbEntity
  8
0
100
AcDbCircle
 10
6304.77078645535
 20
67500.0
 30
0.0
 40
500.0
  0
ARC
  5
8F
330
17
100
AcDbEntity
  8
0
100
AcDbCircle
 10
409.5330949305935
 20
70500.0
 30
0.0
 40
500.0
100
AcDbArc
 50
-144.9914247336367
 51
144.9914247336367
  0
CIRCLE
  5
90
330
17
100
AcDbEntity
  8
0
100
AcDbCircle
 10
2409.5330949305935
 20
70500.0
 30
0.0
 40
500.0
  0
CIRCLE
  5
91
330
17
100
AcDbEntity
  8
0
100
AcDbCircle
 10
4409.5330949305935
 20
70500.0
 30
0.0
 40
500.0
  0
CIRCLE
  5
92
330
17
100
AcDbEntity
  8
0
100
AcDbCircle
 10
6409.5330949305935
 20
70500.0
 30
0.0
 40
500.0
  0
CIRCLE
  5
93
330
17
100
AcDbEntity
  8
0
100
AcDbCircle
 10
514.2954034058366
 20
73500.0
 30
0.0
 40
500.0
  0
CIRCLE
  5
94
330
17
100
AcDbEntity
  8
0
100
AcDbCircle
 10
2514.2954034058366
 20
73500.0
 30
0.0
 40
500.0
  0
CIRCLE
  5
95
330
17
100
AcDbEntity
  8
0
100
AcDbCircle
 10
4514.295403405837
 20
73500.0
 30
0.0
 40
500.0
  0
CIRCLE
  5
96
330
17
100
AcDbEntity
  8
0
100
AcDbCircle
 10
6514.295403405837
 20
73500.0
 30
0.0
 40
500.0
  0
CIRCLE
  5
97
330
17
100
AcDbEntity
  8
0
100
AcDbCircle
 10
619.0577118810797
 20
76500.0
 30
0.0
 40
500.0
  0
CIRCLE
  5
98
330
17
100
AcDbEntity
  8
0
100
AcDbCircle
 10
2619.0577118810797
 20
76500.0
 30
0.0
 40
500.0
  0
CIRCLE
  5
99
330
17
100
AcDbEntity
  8
0
100
AcDbCircle
 10
4619.05771188108
 20
76500.0
 30
0.0
 40
500.0
  0
CIRCLE
  5
9A
330
17
100
AcDbEntity
  8
0
100
AcDbCircle
 10
6619.05771188108
 20
76500.0
 30
0.0
 40
500.0
  0
CIRCLE
  5
9B
330
17
100
AcDbEntity
  8
0
100
AcDbCircle
 10
723.8200203563229
 20
79500.0
 30
0.0
 40
500.0
  0
CIRCLE
  5
9C
330
17
100
AcDbEntity
  8
0
100
AcDbCircle
 10
2723.820020356323
 20
79500.0
 30
0.0
 40
500.0
  0
CIRCLE
  5
9D
330
17
100
AcDbEntity
  8
0
100
AcDbCircle
 10
4723.820020356323
 20
79500.0
 30
0.0
 40
500.0
  0
CIRCLE
  5
9E
330
17
100
AcDbEntity
  8
0
100
AcDbCircle
 10
6723.820020356323
 20
79500.0
 30
0.0
 40
500.0
  0
CIRCLE
  5
9F
330
17
100
AcDbEntity
  8
0
100
AcDbCircle
 10
828.582328831566
 20
82500.0
 30
0.0
 40
500.0
  0
CIRCLE
  5
A0
330
17
100
AcDbEntity
  8
0
100
AcDbCircle
 10
2828.582328831566
 20
82500.0
 30
0.0
 40
500.0
  0
CIRCLE
  5
A1
330
17
100
AcDbEntity
  8
0
100
AcDbCircle
 10
4828.582328831566
 20
82500.0
 30
0.0
 40
500.0
  0
CIRCLE
  5
A2
330
17
100
AcDbEntity
  8
0
100
AcDbCircle
 10
6828.582328831566
 20
82500.0
 30
0.0
 40
500.0
  0
CIRCLE
  5
A3
330
17
100
AcDbEntity
  8
0
100
AcDbCircle
 10
933.3446373068091
 20
85500.0
 30
0.0
 40
500.0
  0
CIRCLE
  5
A4
330
17
100
AcDbEntity
  8
0
100
AcDbCircle
 10
2933.344637306809
 20
85500.0
 30
0.0
 40
500.0
  0
CIRCLE
  5
A5
330
17
100
AcDbEntity
  8
0
100
AcDbCircle
 10
4933.344637306809
 20
85500.0
 30
0.0
 40
500.0
  0
CIRCLE
  5
A6
330
17
100
AcDbEntity
  8
0
100
AcDbCircle
 10
6933.344637306809
 20
85500.0
 30
0.0
 40
500.0
  0
CIRCLE
  5
A7
330
17
100
AcDbEntity
  8
0
100
AcDbCircle
 10
1038.1069457820527
 20
88500.0
 30
0.0
 40
500.0
  0
CIRCLE
  5
A8
330
17
100
AcDbEntity
  8
0
100
AcDbCircle
 10
3038.106945782052
 20
88500.0
 30
0.0
 40
500.0
  0
CIRCLE
  5
A9
330
17
100
AcDbEntity
  8
0
100
AcDbCircle
 10
5038.106945782052
 20
88500.0
 30
0.0
 40
500.0
  0
CIRCLE
  5
AA
330
17
100
AcDbEntity
  8
0
100
AcDbCircle
 10
7038.106945782052
 20
88500.0
 30
0.0
 40
500.0
  0
CIRCLE
  5
AB
330
17
100
AcDbEntity
  8
0
100
AcDbCircle
 10
1142.8692542572958
 20
91500.0
 30
0.0
 40
500.0
  0
CIRCLE
  5
AC
330
17
100
AcDbEntity
  8
0
100
AcDbCircle
 10
3142.8692542572953
 20
91500.0
 30
0.0
 40
500.0
  0
CIRCLE
  5
AD
330
17
100
AcDbEntity
  8
0
100
AcDbCircle
 10
5142.869254257295
 20
91500.0
 30
0.0
 40
500.0
  0
CIRCLE
  5
AE
330
17
100
AcDbEntity
  8
0
100
AcDbCircle
 10
7142.869254257295
 20
91500.0
 30
0.0
 40
500.0
  0
CIRCLE
  5
AF
330
17
100
AcDbEntity
  8
0
100
AcDbCircle
 10
1247.631562732539
 20
94500.0
 30
0.0
 40
500.0
  0
CIRCLE
  5
B0
330
17
100
AcDbEntity
  8
0
100
AcDbCircle
 10
3247.6315627325384
 20
94500.0
 30
0.0
 40
500.0
  0
CIRCLE
  5
B1
330
17
100
AcDbEntity
  8
0
100
AcDbCircle
 10
5247.631562732538
 20
94500.0
 30
0.0
 40
500.0
  0
CIRCLE
  5
B2
330
17
100
AcDbEntity
  8
0
100
AcDbCircle
 10
7247.631562732538
 20
94500.0
 30
0.0
 40
500.0
  0
CIRCLE
  5
B3
330
17
100
AcDbEntity
  8
0
100
AcDbCircle
 10
1352.393871207782
 20
97500.0
 30
0.0
 40
500.0
  0
CIRCLE
  5
B4
330
17
100
AcDbEntity
  8
0
100
AcDbCircle
 10
3352.3938712077816
 20
97500.0
 30
0.0
 40
500.0
  0
CIRCLE
  5
B5
330
17
100
AcDbEntity
  8
0
100
AcDbCircle
 10
5352.393871207782
 20
97500.0
 30
0.0
 40
500.0
  0
CIRCLE
  5
B6
330
17
100
AcDbEntity
  8
0
100
AcDbCircle
 10
7352.393871207782
 20
97500.0
 30
0.0
 40
500.0
  0
LWPOLYLINE
  5
B7
330
17
100
AcDbEntity
  8
0
100
AcDbPolyline
 90
2
 70
0
 43
0.0
 10
0.0
 20
0.0
 10
0.0
 20
1000.0
  0
LWPOLYLINE
  5
B8
330
17
100
AcDbEntity
  8
0
100
AcDbPolyline
 90
2
 70
0
 43
0.0
 10
0.0
 20
2000.0
 10
0.0
 20
4011.0983138473157
  0
LWPOLYLINE
  5
B9
330
17
100
AcDbEntity
  8
0
100
AcDbPolyline
 90
2
 70
0
 43
0.0
 10
0.0
 20
4988.901686152684
 10
0.0
 20
7046.018243877849
  0
LWPOLYLINE
  5
BA
330
17
100
AcDbEntity
  8
0
100
AcDbPolyline
 90
2
 70
0
 43
0.0
 10
0.0
 20
7953.981756122151
 10
0.0
 20
10111.125047725567
  0
LWPOLYLINE
  5
BB
330
17
100
AcDbEntity
  8
0
100
AcDbPolyline
 90
2
 70
0
 43
0.0
 10
0.0
 20
10888.874952274433
 10
0.0
 20
13227.24050966647
  0
LWPOLYLINE
  5
BC
330
17
100
AcDbEntity
  8
0
100
AcDbPolyline
 90
2
 70
0
 43
0.0
 10
0.0
 20
13772.75949033353
 10
0.0
 20
46242.45054615542
  0
LWPOLYLINE
  5
BD
330
17
100
AcDbEntity
  8
0
100
AcDbPolyline
 90
2
 70
0
 43
0.0
 10
0.0
 20
46757.54945384458
 10
0.0
 20
49119.012368327145
  0
LWPOLYLINE
  5
BE
330
17
100
AcDbEntity
  8
0
100
AcDbPolyline
 90
2
 70
0
 43
0.0
 10
0.0
 20
49880.987631672855
 10
0.0
 20
52050.53237352884
  0
LWPOLYLINE
  5
BF
330
17
100
AcDbEntity
  8
0
100
AcDbPolyline
 90
2
 70
0
 43
0.0
 10
0.0
 20
52949.46762647116
 10
0.0
 20
55013.234721401146
  0
LWPOLYLINE
  5
C0
330
17
100
AcDbEntity
  8
0
100
AcDbPolyline
 90
2
 70
0
 43
0.0
 10
0.0
 20
55986.765278598854
 10
0.0
 20
58000.09056510294
  0
LWPOLYLINE
  5
C1
330
17
100
AcDbEntity
  8
0
100
AcDbPolyline
 90
2
 70
0
 43
0.0
 10
0.0
 20
58999.90943489706
 10
0.0
 20
61009.15565889516
  0
LWPOLYLINE
  5
C2
330
17
100
AcDbEntity
  8
0
100
AcDbPolyline
 90
2
 70
0
 43
0.0
 10
0.0
 20
61990.84434110484
 10
0.0
 20
64041.746130691645
  0
LWPOLYLINE
  5
C3
330
17
100
AcDbEntity
  8
0
100
AcDbPolyline
 90
2
 70
0
 43
0.0
 10
0.0
 20
64958.253869308355
 10
0.0
 20
67103.62294753178
  0
LWPOLYLINE
  5
C4
330
17
100
AcDbEntity
  8
0
100
AcDbPolyline
 90
2
 70
0
 43
0.0
 10
0.0
 20
67896.37705246822
 10
0.0
 20
70213.15048517285
  0
LWPOLYLINE
  5
C5
330
17
100
AcDbEntity
  8
0
100
AcDbPolyline
 90
2
 70
0
 43
0.0
 10
0.0
 20
70786.84951482715
 10
0.0
 20
100000.0
  0
LWPOLYLINE
  5
C6
330
17
100
AcDbEntity
  8
0
100
AcDbPolyline
 90
2
 70
0
 43
0.0
 10
10000.0
 20
0.0
 10
10000.0
 20
100000.0
  0
ARC
  5
C7
330
17
100
AcDbEntity
  8
0
100
AcDbCircle
 10
15000.0
 20
100000.0
 30
0.0
 40
5000.0
100
AcDbArc
 50
0.0
 51
180.0
  0
ARC
  5
C8
330
17
100
AcDbEntity
  8
0
100
AcDbCircle
 10
15000.0
 20
100000.0
 30
0.0
 40
15000.0
100
AcDbArc
 50
0.0
 51
180.0
  0
ARC
  5
C9
330
17
100
AcDbEntity
  8
0
100
AcDbCircle
 10
15000.0
 20
100000.0
 30
0.0
 40
7200.0
100
AcDbArc
 50
0.0
 51
180.0
  0
ARC
  5
CA
330
17
100
AcDbEntity
  8
0
100
AcDbCircle
 10
15000.0
 20
100000.0
 30
0.0
 40
9200.0
100
AcDbArc
 50
0.0
 51
180.0
  0
ARC
  5
CB
330
17
100
AcDbEntity
  8
0
100
AcDbCircle
 10
15000.0
 20
100000.0
 30
0.0
 40
11200.0
100
AcDbArc
 50
0.0
 51
180.0
  0
ARC
  5
CC
330
17
100
AcDbEntity
  8
0
100
AcDbCircle
 10
15000.0
 20
100000.0
 30
0.0
 40
13200.0
100
AcDbArc
 50
0.0
 51
180.0
  0
ARC
  5
CD
330
17
100
AcDbEntity
  8
0
100
AcDbCircle
 10
15000.0
 20
100000.0
 30
0.0
 40
6800.0
100
AcDbArc
 50
0.0
 51
180.0
  0
ARC
  5
CE
330
17
100
AcDbEntity
  8
0
100
AcDbCircle
 10
15000.0
 20
100000.0
 30
0.0
 40
8800.0
100
AcDbArc
 50
0.0
 51
180.0
  0
ARC
  5
CF
330
17
100
AcDbEntity
  8
0
100
AcDbCircle
 10
15000.0
 20
100000.0
 30
0.0
 40
10800.0
100
AcDbArc
 50
0.0
 51
180.0
  0
ARC
  5
D0
330
17
100
AcDbEntity
  8
0
100
AcDbCircle
 10
15000.0
 20
100000.0
 30
0.0
 40
12800.0
100
AcDbArc
 50
0.0
 51
180.0
  0
ARC
  5
D1
330
17
100
AcDbEntity
  8
0
100
AcDbCircle
 10
22000.0
 20
100000.0
 30
0.0
 40
200.0
100
AcDbArc
 50
180.0
 51
0.0
  0
ARC
  5
D2
330
17
100
AcDbEntity
  8
0
100
AcDbCircle
 10
8000.0
 20
100000.0
 30
0.0
 40
200.0
100
AcDbArc
 50
180.0
 51
0.0
  0
ARC
  5
D3
330
17
100
AcDbEntity
  8
0
100
AcDbCircle
 10
24000.0
 20
100000.0
 30
0.0
 40
200.0
100
AcDbArc
 50
180.0
 51
0.0
  0
ARC
  5
D4
330
17
100
AcDbEntity
  8
0
100
AcDbCircle
 10
6000.0
 20
100000.0
 30
0.0
 40
200.0
100
AcDbArc
 50
180.0
 51
0.0
  0
ARC
  5
D5
330
17
100
AcDbEntity
  8
0
100
AcDbCircle
 10
26000.0
 20
100000.0
 30
0.0
 40
200.0
100
AcDbArc
 50
180.0
 51
0.0
  0
ARC
  5
D6
330
17
100
AcDbEntity
  8
0
100
AcDbCircle
 10
4000.0
 20
100000.0
 30
0.0
 40
200.0
100
AcDbArc
 50
180.0
 51
0.0
  0
ARC
  5
D7
330
17
100
AcDbEntity
  8
0
100
AcDbCircle
 10
28000.0
 20
100000.0
 30
0.0
 40
200.0
100
AcDbArc
 50
180.0
 51
0.0
  0
ARC
  5
D8
330
17
100
AcDbEntity
  8
0
100
AcDbCircle
 10
2000.0
 20
100000.0
 30
0.0
 40
200.0
100
AcDbArc
 50
180.0
 51
0.0
  0
ARC
  5
D9
330
17
100
AcDbEntity
  8
0
100
AcDbCircle
 10
35000.0
 20
0.0
 30
0.0
 40
5000.0
100
AcDbArc
 50
-180.0
 51
0.0
  0
ARC
  5
DA
330
17
100
AcDbEntity
  8
0
100
AcDbCircle
 10
35000.0
 20
0.0
 30
0.0
 40
15000.0
100
AcDbArc
 50
-180.0
 51
0.0
  0
ARC
  5
DB
330
17
100
AcDbEntity
  8
0
100
AcDbCircle
 10
35000.0
 20
0.0
 30
0.0
 40
7200.0
100
AcDbArc
 50
-180.0
 51
0.0
  0
ARC
  5
DC
330
17
100
AcDbEntity
  8
0
100
AcDbCircle
 10
35000.0
 20
0.0
 30
0.0
 40
9200.0
100
AcDbArc
 50
-180.0
 51
0.0
  0
ARC
  5
DD
330
17
100
AcDbEntity
  8
0
100
AcDbCircle
 10
35000.0
 20
0.0
 30
0.0
 40
11200.0
100
AcDbArc
 50
-180.0
 51
0.0
  0
ARC
  5
DE
330
17
100
AcDbEntity
  8
0
100
AcDbCircle
 10
35000.0
 20
0.0
 30
0.0
 40
13200.0
100
AcDbArc
 50
-180.0
 51
0.0
  0
ARC
  5
DF
330
17
100
AcDbEntity
  8
0
100
AcDbCircle
 10
35000.0
 20
0.0
 30
0.0
 40
6800.0
100
AcDbArc
 50
-180.0
 51
0.0
  0
ARC
  5
E0
330
17
100
AcDbEntity
  8
0
100
AcDbCircle
 10
35000.0
 20
0.0
 30
0.0
 40
8800.0
100
AcDbArc
 50
-180.0
 51
0.0
  0
ARC
  5
E1
330
17
100
AcDbEntity
  8
0
100
AcDbCircle
 10
35000.0
 20
0.0
 30
0.0
 40
10800.0
100
AcDbArc
 50
-180.0
 51
0.0
  0
ARC
  5
E2
330
17
100
AcDbEntity
  8
0
100
AcDbCircle
 10
35000.0
 20
0.0
 30
0.0
 40
12800.0
100
AcDbArc
 50
-180.0
 51
0.0
  0
ARC
  5
E3
330
17
100
AcDbEntity
  8
0
100
AcDbCircle
 10
42000.0
 20
0.0
 30
0.0
 40
200.0
100
AcDbArc
 50
0.0
 51
-180.0
  0
ARC
  5
E4
330
17
100
AcDbEntity
  8
0
100
AcDbCircle
 10
28000.0
 20
0.0
 30
0.0
 40
200.0
100
AcDbArc
 50
0.0
 51
-180.0
  0
ARC
  5
E5
330
17
100
AcDbEntity
  8
0
100
AcDbCircle
 10
44000.0
 20
0.0
 30
0.0
 40
200.0
100
AcDbArc
 50
0.0
 51
-180.0
  0
ARC
  5
E6
330
17
100
AcDbEntity
  8
0
100
AcDbCircle
 10
26000.0
 20
0.0
 30
0.0
 40
200.0
100
AcDbArc
 50
0.0
 51
-180.0
  0
ARC
  5
E7
330
17
100
AcDbEntity
  8
0
100
AcDbCircle
 10
46000.0
 20
0.0
 30
0.0
 40
200.0
100
AcDbArc
 50
0.0
 51
-180.0
  0
ARC
  5
E8
330
17
100
AcDbEntity
  8
0
100
AcDbCircle
 10
24000.0
 20
0.0
 30
0.0
 40
200.0
100
AcDbArc
 50
0.0
 51
-180.0
  0
ARC
  5
E9
330
17
100
AcDbEntity
  8
0
100
AcDbCircle
 10
48000.0
 20
0.0
 30
0.0
 40
200.0
100
AcDbArc
 50
0.0
 51
-180.0
  0
ARC
  5
EA
330
17
100
AcDbEntity
  8
0
100
AcDbCircle
 10
22000.0
 20
0.0
 30
0.0
 40
200.0
100
AcDbArc
 50
0.0
 51
-180.0
  0
ARC
  5
EB
330
17
100
AcDbEntity
  8
0
100
AcDbCircle
 10
30000.0
 20
98500.0
 30
0.0
 40
500.0
100
AcDbArc
 50
90.0
 51
270.0
  0
CIRCLE
  5
EC
330
17
100
AcDbEntity
  8
0
100
AcDbCircle
 10
28000.0
 20
98500.0
 30
0.0
 40
500.0
  0
CIRCLE
  5
ED
330
17
100
AcDbEntity
  8
0
100
AcDbCircle
 10
26000.0
 20
98500.0
 30
0.0
 40
500.0
  0
CIRCLE
  5
EE
330
17
100
AcDbEntity
  8
0
100
AcDbCircle
 10
24000.0
 20
98500.0
 30
0.0
 40
500.0
  0
ARC
  5
EF
330
17
100
AcDbEntity
  8
0
100
AcDbCircle
 10
29895.23769152476
 20
95500.0
 30
0.0
 40
500.0
100
AcDbArc
 50
77.90550495344912
 51
282.0944950465509
  0
CIRCLE
  5
F0
330
17
100
AcDbEntity
  8
0
100
AcDbCircle
 10
27895.23769152476
 20
95500.0
 30
0.0
 40
500.0
  0
CIRCLE
  5
F1
330
17
100
AcDbEntity
  8
0
100
AcDbCircle
 10
25895.237691524755
 20
95500.0
 30
0.0
 40
500.0
  0
CIRCLE
  5
F2
330
17
100
AcDbEntity
  8
0
100
AcDbCircle
 10
23895.237691524755
 20
95500.0
 30
0.0
 40
500.0
  0
ARC
  5
F3
330
17
100
AcDbEntity
  8
0
100
AcDbCircle
 10
29790.475383049514
 20
92500.0
 30
0.0
 40
500.0
100
AcDbArc
 50
65.22542380346286
 51
294.77457619653717
  0
CIRCLE
  5
F4
330
17
100
AcDbEntity
  8
0
100
AcDbCircle
 10
27790.475383049514
 20
92500.0
 30
0.0
 40
500.0
  0
CIRCLE
  5
F5
330
17
100
AcDbEntity
  8
0
100
AcDbCircle
 10
25790.475383049514
 20
92500.0
 30
0.0
 40
500.0
  0
CIRCLE
  5
F6
330
17
100
AcDbEntity
  8
0
100
AcDbCircle
 10
23790.475383049514
 20
92500.0
 30
0.0
 40
500.0
  0
ARC
  5
F7
330
17
100
AcDbEntity
  8
0
100
AcDbCircle
 10
29685.71307457427
 20
89500.0
 30
0.0
 40
500.0
100
AcDbArc
 50
51.055017960047905
 51
308.9449820399521
  0
CIRCLE
  5
F8
330
17
100
AcDbEntity
  8
0
100
AcDbCircle
 10
27685.71307457427
 20
89500.0
 30
0.0
 40
500.0
  0
CIRCLE
  5
F9
330
17
100
AcDbEntity
  8
0
100
AcDbCircle
 10
25685.71307457427
 20
89500.0
 30
0.0
 40
500.0
  0
CIRCLE
  5
FA
330
17
100
AcDbEntity
  8
0
100
AcDbCircle
 10
23685.71307457427
 20
89500.0
 30
0.0
 40
500.0
  0
ARC
  5
FB
330
17
100
AcDbEntity
  8
0
100
AcDbCircle
 10
29580.950766099028
 20
86500.0
 30
0.0
 40
500.0
100
AcDbArc
 50
33.06013609073085
 51
326.93986390926915
  0
CIRCLE
  5
FC
330
17
100
AcDbEntity
  8
0
100
AcDbCircle
 10
27580.950766099028
 20
86500.0
 30
0.0
 40
500.0
  0
CIRCLE
  5
FD
330
17
100
AcDbEntity
  8
0
100
AcDbCircle
 10
25580.950766099028
 20
86500.0
 30
0.0
 40
500.0
  0
CIRCLE
  5
FE
330
17
100
AcDbEntity
  8
0
100
AcDbCircle
 10
23580.950766099028
 20
86500.0
 30
0.0
 40
500.0
  0
CIRCLE
  5
FF
330
17
100
AcDbEntity
  8
0
100
AcDbCircle
 10
29476.188457623783
 20
83500.0
 30
0.0
 40
500.0
  0
CIRCLE
  5
100
330
17
100
AcDbEntity
  8
0
100
AcDbCircle
 10
27476.188457623783
 20
83500.0
 30
0.0
 40
500.0
  0
CIRCLE
  5
101
330
17
100
AcDbEntity
  8
0
100
AcDbCircle
 10
25476.188457623783
 20
83500.0
 30
0.0
 40
500.0
  0
CIRCLE
  5
102
330
17
100
AcDbEntity
  8
0
100
AcDbCircle
 10
23476.188457623783
 20
83500.0
 30
0.0
 40
500.0
  0
CIRCLE
  5
103
330
17
100
AcDbEntity
  8
0
100
AcDbCircle
 10
29371.426149148538
 20
80500.0
 30
0.0
 40
500.0
  0
CIRCLE
  5
104
330
17
100
AcDbEntity
  8
0
100
AcDbCircle
 10
27371.426149148538
 20
80500.0
 30
0.0
 40
500.0
  0
CIRCLE
  5
105
330
17
100
AcDbEntity
  8
0
100
AcDbCircle
 10
25371.426149148538
 20
80500.0
 30
0.0
 40
500.0
  0
CIRCLE
  5
106
330
17
100
AcDbEntity
  8
0
100
AcDbCircle
 10
23371.426149148538
 20
80500.0
 30
0.0
 40
500.0
  0
CIRCLE
  5
107
330
17
100
AcDbEntity
  8
0
100
AcDbCircle
 10
29266.663840673296
 20
77500.0
 30
0.0
 40
500.0
  0
CIRCLE
  5
108
330
17
100
AcDbEntity
  8
0
100
AcDbCircle
 10
27266.663840673296
 20
77500.0
 30
0.0
 40
500.0
  0
CIRCLE
  5
109
330
17
100
AcDbEntity
  8
0
100
AcDbCircle
 10
25266.663840673296
 20
77500.0
 30
0.0
 40
500.0
  0
CIRCLE
  5
10A
330
17
100
AcDbEntity
  8
0
100
AcDbCircle
 10
23266.663840673296
 20
77500.0
 30
0.0
 40
500.0
  0
CIRCLE
  5
10B
330
17
100
AcDbEntity
  8
0
100
AcDbCircle
 10
29161.90153219805
 20
74500.0
 30
0.0
 40
500.0
  0
CIRCLE
  5
10C
330
17
100
AcDbEntity
  8
0
100
AcDbCircle
 10
27161.90153219805
 20
74500.0
 30
0.0
 40
500.0
  0
CIRCLE
  5
10D
330
17
100
AcDbEntity
  8
0
100
AcDbCircle
 10
25161.90153219805
 20
74500.0
 30
0.0
 40
500.0
  0
CIRCLE
  5
10E
330
17
100
AcDbEntity
  8
0
100
AcDbCircle
 10
23161.90153219805
 20
74500.0
 30
0.0
 40
500.0
  0
CIRCLE
  5
10F
330
17
100
AcDbEntity
  8
0
100
AcDbCircle
 10
29057.139223722806
 20
71500.0
 30
0.0
 40
500.0
  0
CIRCLE
  5
110
330
17
100
AcDbEntity
  8
0
100
AcDbCircle
 10
27057.139223722806
 20
71500.0
 30
0.0
 40
500.0
  0
CIRCLE
  5
111
330
17
100
AcDbEntity
  8
0
100
AcDbCircle
 10
25057.139223722806
 20
71500.0
 30
0.0
 40
500.0
  0
CIRCLE
  5
112
330
17
100
AcDbEntity
  8
0
100
AcDbCircle
 10
23057.139223722806
 20
71500.0
 30
0.0
 40
500.0
  0
CIRCLE
  5
113
330
17
100
AcDbEntity
  8
0
100
AcDbCircle
 10
28952.376915247565
 20
68500.0
 30
0.0
 40
500.0
  0
CIRCLE
  5
114
330
17
100
AcDbEntity
  8
0
100
AcDbCircle
 10
26952.376915247565
 20
68500.0
 30
0.0
 40
500.0
  0
CIRCLE
  5
115
330
17
100
AcDbEntity
  8
0
100
AcDbCircle
 10
24952.376915247565
 20
68500.0
 30
0.0
 40
500.0
  0
CIRCLE
  5
116
330
17
100
AcDbEntity
  8
0
100
AcDbCircle
 10
22952.376915247565
 20
68500.0
 30
0.0
 40
500.0
  0
CIRCLE
  5
117
330
17
100
AcDbEntity
  8
0
100
AcDbCircle
 10
28847.61460677232
 20
65500.0
 30
0.0
 40
500.0
  0
CIRCLE
  5
118
330
17
100
AcDbEntity
  8
0
100
AcDbCircle
 10
26847.61460677232
 20
65500.0
 30
0.0
 40
500.0
  0
CIRCLE
  5
119
330
17
100
AcDbEntity
  8
0
100
AcDbCircle
 10
24847.61460677232
 20
65500.0
 30
0.0
 40
500.0
  0
CIRCLE
  5
11A
330
17
100
AcDbEntity
  8
0
100
AcDbCircle
 10
22847.61460677232
 20
65500.0
 30
0.0
 40
500.0
  0
CIRCLE
  5
11B
330
17
100
AcDbEntity
  8
0
100
AcDbCircle
 10
28742.852298297075
 20
62500.0
 30
0.0
 40
500.0
  0
CIRCLE
  5
11C
330
17
100
AcDbEntity
  8
0
100
AcDbCircle
 10
26742.852298297075
 20
62500.0
 30
0.0
 40
500.0
  0
CIRCLE
  5
11D
330
17
100
AcDbEntity
  8
0
100
AcDbCircle
 10
24742.852298297075
 20
62500.0
 30
0.0
 40
500.0
  0
CIRCLE
  5
11E
330
17
100
AcDbEntity
  8
0
100
AcDbCircle
 10
22742.85229829708
 20
62500.0
 30
0.0
 40
500.0
  0
CIRCLE
  5
11F
330
17
100
AcDbEntity
  8
0
100
AcDbCircle
 10
28638.089989821834
 20
59500.0
 30
0.0
 40
500.0
  0
CIRCLE
  5
120
330
17
100
AcDbEntity
  8
0
100
AcDbCircle
 10
26638.089989821834
 20
59500.0
 30
0.0
 40
500.0
  0
CIRCLE
  5
121
330
17
100
AcDbEntity
  8
0
100
AcDbCircle
 10
24638.089989821834
 20
59500.0
 30
0.0
 40
500.0
  0
CIRCLE
  5
122
330
17
100
AcDbEntity
  8
0
100
AcDbCircle
 10
22638.089989821834
 20
59500.0
 30
0.0
 40
500.0
  0
CIRCLE
  5
123
330
17
100
AcDbEntity
  8
0
100
AcDbCircle
 10
28533.327681346593
 20
56500.0
 30
0.0
 40
500.0
  0
CIRCLE
  5
124
330
17
100
AcDbEntity
  8
0
100
AcDbCircle
 10
26533.32768134659
 20
56500.0
 30
0.0
 40
500.0
  0
CIRCLE
  5
125
330
17
100
AcDbEntity
  8
0
100
AcDbCircle
 10
24533.32768134659
 20
56500.0
 30
0.0
 40
500.0
  0
CIRCLE
  5
126
330
17
100
AcDbEntity
  8
0
100
AcDbCircle
 10
22533.327681346593
 20
56500.0
 30
0.0
 40
500.0
  0
ARC
  5
127
330
17
100
AcDbEntity
  8
0
100
AcDbCircle
 10
30428.565372871344
 20
53500.0
 30
0.0
 40
500.0
100
AcDbArc
 50
148.99593365750604
 51
211.00406634249396
  0
CIRCLE
  5
128
330
17
100
AcDbEntity
  8
0
100
AcDbCircle
 10
28428.565372871344
 20
53500.0
 30
0.0
 40
500.0
  0
CIRCLE
  5
129
330
17
100
AcDbEntity
  8
0
100
AcDbCircle
 10
26428.565372871344
 20
53500.0
 30
0.0
 40
500.0
  0
CIRCLE
  5
12A
330
17
100
AcDbEntity
  8
0
100
AcDbCircle
 10
24428.565372871348
 20
53500.0
 30
0.0
 40
500.0
  0
CIRCLE
  5
12B
330
17
100
AcDbEntity
  8
0
100
AcDbCircle
 10
22428.565372871344
 20
53500.0
 30
0.0
 40
500.0
  0
ARC
  5
12C
330
17
100
AcDbEntity
  8
0
100
AcDbCircle
 10
30323.803064396103
 20
50500.0
 30
0.0
 40
500.0
100
AcDbArc
 50
130.36135645628516
 51
229.63864354371484
  0
CIRCLE
  5
12D
330
17
100
AcDbEntity
  8
0
100
AcDbCircle
 10
28323.803064396103
 20
50500.0
 30
0.0
 40
500.0
  0
CIRCLE
  5
12E
330
17
100
AcDbEntity
  8
0
100
AcDbCircle
 10
26323.803064396103
 20
50500.0
 30
0.0
 40
500.0
  0
CIRCLE
  5
12F
330
17
100
AcDbEntity
  8
0
100
AcDbCircle
 10
24323.803064396103
 20
50500.0
 30
0.0
 40
500.0
  0
CIRCLE
  5
130
330
17
100
AcDbEntity
  8
0
100
AcDbCircle
 10
22323.803064396103
 20
50500.0
 30
0.0
 40
500.0
  0
ARC
  5
131
330
17
100
AcDbEntity
  8
0
100
AcDbCircle
 10
30219.04075592086
 20
47500.0
 30
0.0
 40
500.0
100
AcDbArc
 50
115.98153797688471
 51
244.0184620231153
  0
CIRCLE
  5
132
330
17
100
AcDbEntity
  8
0
100
AcDbCircle
 10
28219.04075592086
 20
47500.0
 30
0.0
 40
500.0
  0
CIRCLE
  5
133
330
17
100
AcDbEntity
  8
0
100
AcDbCircle
 10
26219.04075592086
 20
47500.0
 30
0.0
 40
500.0
  0
CIRCLE
  5
134
330
17
100
AcDbEntity
  8
0
100
AcDbCircle
 10
24219.04075592086
 20
47500.0
 30
0.0
 40
500.0
  0
CIRCLE
  5
135
330
17
100
AcDbEntity
  8
0
100
AcDbCircle
 10
22219.040755920858
 20
47500.0
 30
0.0
 40
500.0
  0
ARC
  5
136
330
17
100
AcDbEntity
  8
0
100
AcDbCircle
 10
30114.278447445617
 20
44500.0
 30
0.0
 40
500.0
100
AcDbArc
 50
103.21212499923696
 51
256.78787500076305
  0
CIRCLE
  5
137
330
17
100
AcDbEntity
  8
0
100
AcDbCircle
 10
28114.278447445617
 20
44500.0
 30
0.0
 40
500.0
  0
CIRCLE
  5
138
330
17
100
AcDbEntity
  8
0
100
AcDbCircle
 10
26114.278447445613
 20
44500.0
 30
0.0
 40
500.0
  0
CIRCLE
  5
139
330
17
100
AcDbEntity
  8
0
100
AcDbCircle
 10
24114.278447445617
 20
44500.0
 30
0.0
 40
500.0
  0
CIRCLE
  5
13A
330
17
100
AcDbEntity
  8
0
100
AcDbCircle
 10
22114.278447445617
 20
44500.0
 30
0.0
 40
500.0
  0
ARC
  5
13B
330
17
100
AcDbEntity
  8
0
100
AcDbCircle
 10
30009.51613897037
 20
41500.0
 30
0.0
 40
500.0
100
AcDbArc
 50
91.09053504426622
 51
268.90946495573377
  0
CIRCLE
  5
13C
330
17
100
AcDbEntity
  8
0
100
AcDbCircle
 10
28009.51613897037
 20
41500.0
 30
0.0
 40
500.0
  0
CIRCLE
  5
13D
330
17
100
AcDbEntity
  8
0
100
AcDbCircle
 10
26009.51613897037
 20
41500.0
 30
0.0
 40
500.0
  0
CIRCLE
  5
13E
330
17
100
AcDbEntity
  8
0
100
AcDbCircle
 10
24009.51613897037
 20
41500.0
 30
0.0
 40
500.0
  0
CIRCLE
  5
13F
330
17
100
AcDbEntity
  8
0
100
AcDbCircle
 10
22009.51613897037
 20
41500.0
 30
0.0
 40
500.0
  0
ARC
  5
140
330
17
100
AcDbEntity
  8
0
100
AcDbCircle
 10
29904.75383049513
 20
38500.0
 30
0.0
 40
500.0
100
AcDbArc
 50
79.018482072635
 51
280.981517927365
  0
CIRCLE
  5
141
330
17
100
AcDbEntity
  8
0
100
AcDbCircle
 10
27904.75383049513
 20
38500.0
 30
0.0
 40
500.0
  0
CIRCLE
  5
142
330
17
100
AcDbEntity
  8
0
100
AcDbCircle
 10
25904.75383049513
 20
38500.0
 30
0.0
 40
500.0
  0
CIRCLE
  5
143
330
17
100
AcDbEntity
  8
0
100
AcDbCircle
 10
23904.75383049513
 20
38500.0
 30
0.0
 40
500.0
  0
ARC
  5
144
330
17
100
AcDbEntity
  8
0
100
AcDbCircle
 10
29799.991522019885
 20
35500.0
 30
0.0
 40
500.0
100
AcDbArc
 50
66.42076151870747
 51
293.5792384812925
  0
CIRCLE
  5
145
330
17
100
AcDbEntity
  8
0
100
AcDbCircle
 10
27799.991522019885
 20
35500.0
 30
0.0
 40
500.0
  0
CIRCLE
  5
146
330
17
100
AcDbEntity
  8
0
100
AcDbCircle
 10
25799.991522019885
 20
35500.0
 30
0.0
 40
500.0
  0
CIRCLE
  5
147
330
17
100
AcDbEntity
  8
0
100
AcDbCircle
 10
23799.991522019885
 20
35500.0
 30
0.0
 40
500.0
  0
ARC
  5
148
330
17
100
AcDbEntity
  8
0
100
AcDbCircle
 10
29695.22921354464
 20
32500.0
 30
0.0
 40
500.0
100
AcDbArc
 50
52.44363692128658
 51
307.5563630787134
  0
CIRCLE
  5
149
330
17
100
AcDbEntity
  8
0
100
AcDbCircle
 10
27695.22921354464
 20
32500.0
 30
0.0
 40
500.0
  0
CIRCLE
  5
14A
330
17
100
AcDbEntity
  8
0
100
AcDbCircle
 10
25695.22921354464
 20
32500.0
 30
0.0
 40
500.0
  0
CIRCLE
  5
14B
330
17
100
AcDbEntity
  8
0
100
AcDbCircle
 10
23695.22921354464
 20
32500.0
 30
0.0
 40
500.0
  0
ARC
  5
14C
330
17
100
AcDbEntity
  8
0
100
AcDbCircle
 10
29590.4669050694
 20
29500.0
 30
0.0
 40
500.0
100
AcDbArc
 50
35.008575266363295
 51
324.9914247336367
  0
CIRCLE
  5
14D
330
17
100
AcDbEntity
  8
0
100
AcDbCircle
 10
27590.4669050694
 20
29500.0
 30
0.0
 40
500.0
  0
CIRCLE
  5
14E
330
17
100
AcDbEntity
  8
0
100
AcDbCircle
 10
25590.4669050694
 20
29500.0
 30
0.0
 40
500.0
  0
CIRCLE
  5
14F
330
17
100
AcDbEntity
  8
0
100
AcDbCircle
 10
23590.4669050694
 20
29500.0
 30
0.0
 40
500.0
  0
CIRCLE
  5
150
330
17
100
AcDbEntity
  8
0
100
AcDbCircle
 10
29485.704596594154
 20
26500.0
 30
0.0
 40
500.0
  0
CIRCLE
  5
151
330
17
100
AcDbEntity
  8
0
100
AcDbCircle
 10
27485.704596594154
 20
26500.0
 30
0.0
 40
500.0
  0
CIRCLE
  5
152
330
17
100
AcDbEntity
  8
0
100
AcDbCircle
 10
25485.704596594154
 20
26500.0
 30
0.0
 40
500.0
  0
CIRCLE
  5
153
330
17
100
AcDbEntity
  8
0
100
AcDbCircle
 10
23485.704596594154
 20
26500.0
 30
0.0
 40
500.0
  0
CIRCLE
  5
154
330
17
100
AcDbEntity
  8
0
100
AcDbCircle
 10
29380.94228811891
 20
23500.0
 30
0.0
 40
500.0
  0
CIRCLE
  5
155
330
17
100
AcDbEntity
  8
0
100
AcDbCircle
 10
27380.94228811891
 20
23500.0
 30
0.0
 40
500.0
  0
CIRCLE
  5
156
330
17
100
AcDbEntity
  8
0
100
AcDbCircle
 10
25380.94228811891
 20
23500.0
 30
0.0
 40
500.0
  0
CIRCLE
  5
157
330
17
100
AcDbEntity
  8
0
100
AcDbCircle
 10
23380.94228811891
 20
23500.0
 30
0.0
 40
500.0
  0
CIRCLE
  5
158
330
17
100
AcDbEntity
  8
0
100
AcDbCircle
 10
29276.179979643668
 20
20500.0
 30
0.0
 40
500.0
  0
CIRCLE
  5
159
330
17
100
AcDbEntity
  8
0
100
AcDbCircle
 10
27276.179979643668
 20
20500.0
 30
0.0
 40
500.0
  0
CIRCLE
  5
15A
330
17
100
AcDbEntity
  8
0
100
AcDbCircle
 10
25276.179979643668
 20
20500.0
 30
0.0
 40
500.0
  0
CIRCLE
  5
15B
330
17
100
AcDbEntity
  8
0
100
AcDbCircle
 10
23276.179979643668
 20
20500.0
 30
0.0
 40
500.0
  0
CIRCLE
  5
15C
330
17
100
AcDbEntity
  8
0
100
AcDbCircle
 10
29171.417671168423
 20
17500.0
 30
0.0
 40
500.0
  0
CIRCLE
  5
15D
330
17
100
AcDbEntity
  8
0
100
AcDbCircle
 10
27171.417671168423
 20
17500.0
 30
0.0
 40
500.0
  0
CIRCLE
  5
15E
330
17
100
AcDbEntity
  8
0
100
AcDbCircle
 10
25171.417671168423
 20
17500.0
 30
0.0
 40
500.0
  0
CIRCLE
  5
15F
330
17
100
AcDbEntity
  8
0
100
AcDbCircle
 10
23171.417671168423
 20
17500.0
 30
0.0
 40
500.0
  0
CIRCLE
  5
160
330
17
100
AcDbEntity
  8
0
100
AcDbCircle
 10
29066.655362693178
 20
14500.0
 30
0.0
 40
500.0
  0
CIRCLE
  5
161
330
17
100
AcDbEntity
  8
0
100
AcDbCircle
 10
27066.655362693178
 20
14500.0
 30
0.0
 40
500.0
  0
CIRCLE
  5
162
330
17
100
AcDbEntity
  8
0
100
AcDbCircle
 10
25066.655362693178
 20
14500.0
 30
0.0
 40
500.0
  0
CIRCLE
  5
163
330
17
100
AcDbEntity
  8
0
100
AcDbCircle
 10
23066.655362693178
 20
14500.0
 30
0.0
 40
500.0
  0
CIRCLE
  5
164
330
17
100
AcDbEntity
  8
0
100
AcDbCircle
 10
28961.893054217937
 20
11500.0
 30
0.0
 40
500.0
  0
CIRCLE
  5
165
330
17
100
AcDbEntity
  8
0
100
AcDbCircle
 10
26961.893054217937
 20
11500.0
 30
0.0
 40
500.0
  0
CIRCLE
  5
166
330
17
100
AcDbEntity
  8
0
100
AcDbCircle
 10
24961.893054217937
 20
11500.0
 30
0.0
 40
500.0
  0
CIRCLE
  5
167
330
17
100
AcDbEntity
  8
0
100
AcDbCircle
 10
22961.893054217937
 20
11500.0
 30
0.0
 40
500.0
  0
CIRCLE
  5
168
330
17
100
AcDbEntity
  8
0
100
AcDbCircle
 10
28857.130745742696
 20
8500.0
 30
0.0
 40
500.0
  0
CIRCLE
  5
169
330
17
100
AcDbEntity
  8
0
100
AcDbCircle
 10
26857.130745742696
 20
8500.0
 30
0.0
 40
500.0
  0
CIRCLE
  5
16A
330
17
100
AcDbEntity
  8
0
100
AcDbCircle
 10
24857.130745742696
 20
8500.0
 30
0.0
 40
500.0
  0
CIRCLE
  5
16B
330
17
100
AcDbEntity
  8
0
100
AcDbCircle
 10
22857.130745742696
 20
8500.0
 30
0.0
 40
500.0
  0
CIRCLE
  5
16C
330
17
100
AcDbEntity
  8
0
100
AcDbCircle
 10
28752.368437267447
 20
5500.0
 30
0.0
 40
500.0
  0
CIRCLE
  5
16D
330
17
100
AcDbEntity
  8
0
100
AcDbCircle
 10
26752.36843726745
 20
5500.0
 30
0.0
 40
500.0
  0
CIRCLE
  5
16E
330
17
100
AcDbEntity
  8
0
100
AcDbCircle
 10
24752.36843726745
 20
5500.0
 30
0.0
 40
500.0
  0
CIRCLE
  5
16F
330
17
100
AcDbEntity
  8
0
100
AcDbCircle
 10
22752.36843726745
 20
5500.0
 30
0.0
 40
500.0
  0
CIRCLE
  5
170
330
17
100
AcDbEntity
  8
0
100
AcDbCircle
 10
28647.606128792206
 20
2500.0
 30
0.0
 40
500.0
  0
CIRCLE
  5
171
330
17
100
AcDbEntity
  8
0
100
AcDbCircle
 10
26647.606128792206
 20
2500.0
 30
0.0
 40
500.0
  0
CIRCLE
  5
172
330
17
100
AcDbEntity
  8
0
100
AcDbCircle
 10
24647.606128792206
 20
2500.0
 30
0.0
 40
500.0
  0
CIRCLE
  5
173
330
17
100
AcDbEntity
  8
0
100
AcDbCircle
 10
22647.606128792206
 20
2500.0
 30
0.0
 40
500.0
  0
LWPOLYLINE
  5
174
330
17
100
AcDbEntity
  8
0
100
AcDbPolyline
 90
2
 70
0
 43
0.0
 10
30000.0
 20
100000.0
 10
30000.0
 20
99000.0
  0
LWPOLYLINE
  5
175
330
17
100
AcDbEntity
  8
0
100
AcDbPolyline
 90
2
 70
0
 43
0.0
 10
30000.0
 20
98000.0
 10
30000.0
 20
95988.90168615269
  0
LWPOLYLINE
  5
176
330
17
100
AcDbEntity
  8
0
100
AcDbPolyline
 90
2
 70
0
 43
0.0
 10
30000.0
 20
95011.09831384731
 10
30000.0
 20
92953.98175612216
  0
LWPOLYLINE
  5
177
330
17
100
AcDbEntity
  8
0
100
AcDbPolyline
 90
2
 70
0
 43
0.0
 10
30000.0
 20
92046.01824387784
 10
30000.0
 20
89888.87495227443
  0
LWPOLYLINE
  5
178
330
17
100
AcDbEntity
  8
0
100
AcDbPolyline
 90
2
 70
0
 43
0.0
 10
30000.0
 20
89111.12504772557
 10
30000.0
 20
86772.75949033353
  0
LWPOLYLINE
  5
179
330
17
100
AcDbEntity
  8
0
100
AcDbPolyline
 90
2
 70
0
 43
0.0
 10
30000.0
 20
86227.24050966647
 10
29999.999999999993
 20
53757.54945384458
  0
LWPOLYLINE
  5
17A
330
17
100
AcDbEntity
  8
0
100
AcDbPolyline
 90
2
 70
0
 43
0.0
 10
29999.999999999993
 20
53242.45054615542
 10
29999.999999999993
 20
50880.987631672855
  0
LWPOLYLINE
  5
17B
330
17
100
AcDbEntity
  8
0
100
AcDbPolyline
 90
2
 70
0
 43
0.0
 10
29999.999999999993
 20
50119.012368327145
 10
29999.999999999993
 20
47949.46762647116
  0
LWPOLYLINE
  5
17C
330
17
100
AcDbEntity
  8
0
100
AcDbPolyline
 90
2
 70
0
 43
0.0
 10
29999.999999999993
 20
47050.53237352884
 10
29999.999999999993
 20
44986.765278598854
  0
LWPOLYLINE
  5
17D
330
17
100
AcDbEntity
  8
0
100
AcDbPolyline
 90
2
 70
0
 43
0.0
 10
29999.999999999993
 20
44013.234721401146
 10
29999.999999999993
 20
41999.90943489706
  0
LWPOLYLINE
  5
17E
330
17
100
AcDbEntity
  8
0
100
AcDbPolyline
 90
2
 70
0
 43
0.0
 10
29999.999999999993
 20
41000.09056510294
 10
29999.999999999993
 20
38990.84434110484
  0
LWPOLYLINE
  5
17F
330
17
100
AcDbEntity
  8
0
100
AcDbPolyline
 90
2
 70
0
 43
0.0
 10
29999.999999999993
 20
38009.15565889516
 10
29999.999999999993
 20
35958.253869308355
  0
LWPOLYLINE
  5
180
330
17
100
AcDbEntity
  8
0
100
AcDbPolyline
 90
2
 70
0
 43
0.0
 10
29999.999999999993
 20
35041.746130691645
 10
29999.999999999993
 20
32896.37705246822
  0
LWPOLYLINE
  5
181
330
17
100
AcDbEntity
  8
0
100
AcDbPolyline
 90
2
 70
0
 43
0.0
 10
29999.999999999993
 20
32103.62294753178
 10
29999.999999999993
 20
29786.849514827147
  0
LWPOLYLINE
  5
182
330
17
100
AcDbEntity
  8
0
100
AcDbPolyline
 90
2
 70
0
 43
0.0
 10
29999.999999999993
 20
29213.150485172853
 10
29999.999999999985
 20
0.0
  0
LWPOLYLINE
  5
183
330
17
100
AcDbEntity
  8
0
100
AcDbPolyline
 90
2
 70
0
 43
0.0
 10
20000.0
 20
100000.0
 10
19999.999999999985
 20
0.0
  0
ARC
  5
184
330
17
100
AcDbEntity
  8
0
100
AcDbCircle
 10
39999.99999999997
 20
1500.0
 30
0.0
 40
500.0
100
AcDbArc
 50
270.0
 51
450.0
  0
CIRCLE
  5
185
330
17
100
AcDbEntity
  8
0
100
AcDbCircle
 10
41999.99999999997
 20
1500.0
 30
0.0
 40
500.0
  0
CIRCLE
  5
186
330
17
100
AcDbEntity
  8
0
100
AcDbCircle
 10
43999.99999999997
 20
1500.0
 30
0.0
 40
500.0
  0
CIRCLE
  5
187
330
17
100
AcDbEntity
  8
0
100
AcDbCircle
 10
45999.99999999997
 20
1500.0
 30
0.0
 40
500.0
  0
ARC
  5
188
330
17
100
AcDbEntity
  8
0
100
AcDbCircle
 10
40104.76230847521
 20
4500.0
 30
0.0
 40
500.0
100
AcDbArc
 50
257.9055049534491
 51
462.0944950465509
  0
CIRCLE
  5
189
330
17
100
AcDbEntity
  8
0
100
AcDbCircle
 10
42104.76230847521
 20
4500.0
 30
0.0
 40
500.0
  0
CIRCLE
  5
18A
330
17
100
AcDbEntity
  8
0
100
AcDbCircle
 10
44104.76230847522
 20
4500.0
 30
0.0
 40
500.0
  0
CIRCLE
  5
18B
330
17
100
AcDbEntity
  8
0
100
AcDbCircle
 10
46104.76230847522
 20
4500.0
 30
0.0
 40
500.0
  0
ARC
  5
18C
330
17
100
AcDbEntity
  8
0
100
AcDbCircle
 10
40209.52461695046
 20
7500.0
 30
0.0
 40
500.0
100
AcDbArc
 50
245.22542380346286
 51
474.77457619653717
  0
CIRCLE
  5
18D
330
17
100
AcDbEntity
  8
0
100
AcDbCircle
 10
42209.52461695046
 20
7500.0
 30
0.0
 40
500.0
  0
CIRCLE
  5
18E
330
17
100
AcDbEntity
  8
0
100
AcDbCircle
 10
44209.52461695046
 20
7500.0
 30
0.0
 40
500.0
  0
CIRCLE
  5
18F
330
17
100
AcDbEntity
  8
0
100
AcDbCircle
 10
46209.52461695046
 20
7500.0
 30
0.0
 40
500.0
  0
ARC
  5
190
330
17
100
AcDbEntity
  8
0
100
AcDbCircle
 10
40314.28692542571
 20
10500.0
 30
0.0
 40
500.0
100
AcDbArc
 50
231.0550179600479
 51
488.9449820399521
  0
CIRCLE
  5
191
330
17
100
AcDbEntity
  8
0
100
AcDbCircle
 10
42314.28692542571
 20
10500.0
 30
0.0
 40
500.0
  0
CIRCLE
  5
192
330
17
100
AcDbEntity
  8
0
100
AcDbCircle
 10
44314.28692542571
 20
10500.0
 30
0.0
 40
500.0
  0
CIRCLE
  5
193
330
17
100
AcDbEntity
  8
0
100
AcDbCircle
 10
46314.28692542571
 20
10500.0
 30
0.0
 40
500.0
  0
ARC
  5
194
330
17
100
AcDbEntity
  8
0
100
AcDbCircle
 10
40419.04923390095
 20
13500.0
 30
0.0
 40
500.0
100
AcDbArc
 50
213.06013609073085
 51
506.93986390926915
  0
CIRCLE
  5
195
330
17
100
AcDbEntity
  8
0
100
AcDbCircle
 10
42419.04923390095
 20
13500.0
 30
0.0
 40
500.0
  0
CIRCLE
  5
196
330
17
100
AcDbEntity
  8
0
100
AcDbCircle
 10
44419.04923390095
 20
13500.0
 30
0.0
 40
500.0
  0
CIRCLE
  5
197
330
17
100
AcDbEntity
  8
0
100
AcDbCircle
 10
46419.04923390095
 20
13500.0
 30
0.0
 40
500.0
  0
CIRCLE
  5
198
330
17
100
AcDbEntity
  8
0
100
AcDbCircle
 10
40523.81154237619
 20
16500.0
 30
0.0
 40
500.0
  0
CIRCLE
  5
199
330
17
100
AcDbEntity
  8
0
100
AcDbCircle
 10
42523.81154237619
 20
16500.0
 30
0.0
 40
500.0
  0
CIRCLE
  5
19A
330
17
100
AcDbEntity
  8
0
100
AcDbCircle
 10
44523.81154237619
 20
16500.0
 30
0.0
 40
500.0
  0
CIRCLE
  5
19B
330
17
100
AcDbEntity
  8
0
100
AcDbCircle
 10
46523.81154237619
 20
16500.0
 30
0.0
 40
500.0
  0
CIRCLE
  5
19C
330
17
100
AcDbEntity
  8
0
100
AcDbCircle
 10
40628.57385085143
 20
19500.0
 30
0.0
 40
500.0
  0
CIRCLE
  5
19D
330
17
100
AcDbEntity
  8
0
100
AcDbCircle
 10
42628.57385085143
 20
19500.0
 30
0.0
 40
500.0
  0
CIRCLE
  5
19E
330
17
100
AcDbEntity
  8
0
100
AcDbCircle
 10
44628.57385085143
 20
19500.0
 30
0.0
 40
500.0
  0
CIRCLE
  5
19F
330
17
100
AcDbEntity
  8
0
100
AcDbCircle
 10
46628.57385085143
 20
19500.0
 30
0.0
 40
500.0
  0
CIRCLE
  5
1A0
330
17
100
AcDbEntity
  8
0
100
AcDbCircle
 10
40733.336159326675
 20
22500.0
 30
0.0
 40
500.0
  0
CIRCLE
  5
1A1
330
17
100
AcDbEntity
  8
0
100
AcDbCircle
 10
42733.336159326675
 20
22500.0
 30
0.0
 40
500.0
  0
CIRCLE
  5
1A2
330
17
100
AcDbEntity
  8
0
100
AcDbCircle
 10
44733.336159326675
 20
22500.0
 30
0.0
 40
500.0
  0
CIRCLE
  5
1A3
330
17
100
AcDbEntity
  8
0
100
AcDbCircle
 10
46733.336159326675
 20
22500.0
 30
0.0
 40
500.0
  0
CIRCLE
  5
1A4
330
17
100
AcDbEntity
  8
0
100
AcDbCircle
 10
40838.09846780192
 20
25500.0
 30
0.0
 40
500.0
  0
CIRCLE
  5
1A5
330
17
100
AcDbEntity
  8
0
100
AcDbCircle
 10
42838.09846780192
 20
25500.0
 30
0.0
 40
500.0
  0
CIRCLE
  5
1A6
330
17
100
AcDbEntity
  8
0
100
AcDbCircle
 10
44838.09846780192
 20
25500.0
 30
0.0
 40
500.0
  0
CIRCLE
  5
1A7
330
17
100
AcDbEntity
  8
0
100
AcDbCircle
 10
46838.09846780192
 20
25500.0
 30
0.0
 40
500.0
  0
CIRCLE
  5
1A8
330
17
100
AcDbEntity
  8
0
100
AcDbCircle
 10
40942.86077627717
 20
28500.0
 30
0.0
 40
500.0
  0
CIRCLE
  5
1A9
330
17
100
AcDbEntity
  8
0
100
AcDbCircle
 10
42942.86077627717
 20
28500.0
 30
0.0
 40
500.0
  0
CIRCLE
  5
1AA
330
17
100
AcDbEntity
  8
0
100
AcDbCircle
 10
44942.86077627717
 20
28500.0
 30
0.0
 40
500.0
  0
CIRCLE
  5
1AB
330
17
100
AcDbEntity
  8
0
100
AcDbCircle
 10
46942.86077627717
 20
28500.0
 30
0.0
 40
500.0
  0
CIRCLE
  5
1AC
330
17
100
AcDbEntity
  8
0
100
AcDbCircle
 10
41047.62308475241
 20
31500.0
 30
0.0
 40
500.0
  0
CIRCLE
  5
1AD
330
17
100
AcDbEntity
  8
0
100
AcDbCircle
 10
43047.62308475241
 20
31500.0
 30
0.0
 40
500.0
  0
CIRCLE
  5
1AE
330
17
100
AcDbEntity
  8
0
100
AcDbCircle
 10
45047.62308475241
 20
31500.0
 30
0.0
 40
500.0
  0
CIRCLE
  5
1AF
330
17
100
AcDbEntity
  8
0
100
AcDbCircle
 10
47047.62308475241
 20
31500.0
 30
0.0
 40
500.0
  0
CIRCLE
  5
1B0
330
17
100
AcDbEntity
  8
0
100
AcDbCircle
 10
41152.385393227654
 20
34500.0
 30
0.0
 40
500.0
  0
CIRCLE
  5
1B1
330
17
100
AcDbEntity
  8
0
100
AcDbCircle
 10
43152.385393227654
 20
34500.0
 30
0.0
 40
500.0
  0
CIRCLE
  5
1B2
330
17
100
AcDbEntity
  8
0
100
AcDbCircle
 10
45152.385393227654
 20
34500.0
 30
0.0
 40
500.0
  0
CIRCLE
  5
1B3
330
17
100
AcDbEntity
  8
0
100
AcDbCircle
 10
47152.385393227654
 20
34500.0
 30
0.0
 40
500.0
  0
CIRCLE
  5
1B4
330
17
100
AcDbEntity
  8
0
100
AcDbCircle
 10
41257.1477017029
 20
37500.0
 30
0.0
 40
500.0
  0
CIRCLE
  5
1B5
330
17
100
AcDbEntity
  8
0
100
AcDbCircle
 10
43257.1477017029
 20
37500.0
 30
0.0
 40
500.0
  0
CIRCLE
  5
1B6
330
17
100
AcDbEntity
  8
0
100
AcDbCircle
 10
45257.1477017029
 20
37500.0
 30
0.0
 40
500.0
  0
CIRCLE
  5
1B7
330
17
100
AcDbEntity
  8
0
100
AcDbCircle
 10
47257.147701702896
 20
37500.0
 30
0.0
 40
500.0
  0
CIRCLE
  5
1B8
330
17
100
AcDbEntity
  8
0
100
AcDbCircle
 10
41361.910010178144
 20
40500.0
 30
0.0
 40
500.0
  0
CIRCLE
  5
1B9
330
17
100
AcDbEntity
  8
0
100
AcDbCircle
 10
43361.910010178144
 20
40500.0
 30
0.0
 40
500.0
  0
CIRCLE
  5
1BA
330
17
100
AcDbEntity
  8
0
100
AcDbCircle
 10
45361.910010178144
 20
40500.0
 30
0.0
 40
500.0
  0
CIRCLE
  5
1BB
330
17
100
AcDbEntity
  8
0
100
AcDbCircle
 10
47361.910010178144
 20
40500.0
 30
0.0
 40
500.0
  0
CIRCLE
  5
1BC
330
17
100
AcDbEntity
  8
0
100
AcDbCircle
 10
41466.672318653385
 20
43500.0
 30
0.0
 40
500.0
  0
CIRCLE
  5
1BD
330
17
100
AcDbEntity
  8
0
100
AcDbCircle
 10
43466.67231865339
 20
43500.0
 30
0.0
 40
500.0
  0
CIRCLE
  5
1BE
330
17
100
AcDbEntity
  8
0
100
AcDbCircle
 10
45466.67231865339
 20
43500.0
 30
0.0
 40
500.0
  0
CIRCLE
  5
1BF
330
17
100
AcDbEntity
  8
0
100
AcDbCircle
 10
47466.672318653385
 20
43500.0
 30
0.0
 40
500.0
  0
ARC
  5
1C0
330
17
100
AcDbEntity
  8
0
100
AcDbCircle
 10
39571.434627128634
 20
46500.00000000001
 30
0.0
 40
500.0
100
AcDbArc
 50
328.99593365750604
 51
391.00406634249396
  0
CIRCLE
  5
1C1
330
17
100
AcDbEntity
  8
0
100
AcDbCircle
 10
41571.434627128634
 20
46500.0
 30
0.0
 40
500.0
  0
CIRCLE
  5
1C2
330
17
100
AcDbEntity
  8
0
100
AcDbCircle
 10
43571.434627128634
 20
46500.0
 30
0.0
 40
500.0
  0
CIRCLE
  5
1C3
330
17
100
AcDbEntity
  8
0
100
AcDbCircle
 10
45571.434627128634
 20
46500.0
 30
0.0
 40
500.0
  0
CIRCLE
  5
1C4
330
17
100
AcDbEntity
  8
0
100
AcDbCircle
 10
47571.434627128634
 20
46500.0
 30
0.0
 40
500.0
  0
ARC
  5
1C5
330
17
100
AcDbEntity
  8
0
100
AcDbCircle
 10
39676.196935603875
 20
49500.00000000001
 30
0.0
 40
500.0
100
AcDbArc
 50
310.3613564562852
 51
409.6386435437148
  0
CIRCLE
  5
1C6
330
17
100
AcDbEntity
  8
0
100
AcDbCircle
 10
41676.196935603875
 20
49500.0
 30
0.0
 40
500.0
  0
CIRCLE
  5
1C7
330
17
100
AcDbEntity
  8
0
100
AcDbCircle
 10
43676.196935603875
 20
49500.0
 30
0.0
 40
500.0
  0
CIRCLE
  5
1C8
330
17
100
AcDbEntity
  8
0
100
AcDbCircle
 10
45676.196935603875
 20
49500.0
 30
0.0
 40
500.0
  0
CIRCLE
  5
1C9
330
17
100
AcDbEntity
  8
0
100
AcDbCircle
 10
47676.196935603875
 20
49500.0
 30
0.0
 40
500.0
  0
ARC
  5
1CA
330
17
100
AcDbEntity
  8
0
100
AcDbCircle
 10
39780.95924407912
 20
52500.00000000001
 30
0.0
 40
500.0
100
AcDbArc
 50
295.98153797688474
 51
424.01846202311526
  0
CIRCLE
  5
1CB
330
17
100
AcDbEntity
  8
0
100
AcDbCircle
 10
41780.95924407912
 20
52500.0
 30
0.0
 40
500.0
  0
CIRCLE
  5
1CC
330
17
100
AcDbEntity
  8
0
100
AcDbCircle
 10
43780.95924407912
 20
52500.0
 30
0.0
 40
500.0
  0
CIRCLE
  5
1CD
330
17
100
AcDbEntity
  8
0
100
AcDbCircle
 10
45780.95924407912
 20
52500.0
 30
0.0
 40
500.0
  0
CIRCLE
  5
1CE
330
17
100
AcDbEntity
  8
0
100
AcDbCircle
 10
47780.95924407912
 20
52500.0
 30
0.0
 40
500.0
  0
ARC
  5
1CF
330
17
100
AcDbEntity
  8
0
100
AcDbCircle
 10
39885.721552554365
 20
55500.00000000001
 30
0.0
 40
500.0
100
AcDbArc
 50
283.21212499923695
 51
436.78787500076305
  0
CIRCLE
  5
1D0
330
17
100
AcDbEntity
  8
0
100
AcDbCircle
 10
41885.721552554365
 20
55500.0
 30
0.0
 40
500.0
  0
CIRCLE
  5
1D1
330
17
100
AcDbEntity
  8
0
100
AcDbCircle
 10
43885.72155255437
 20
55500.0
 30
0.0
 40
500.0
  0
CIRCLE
  5
1D2
330
17
100
AcDbEntity
  8
0
100
AcDbCircle
 10
45885.721552554365
 20
55500.0
 30
0.0
 40
500.0
  0
CIRCLE
  5
1D3
330
17
100
AcDbEntity
  8
0
100
AcDbCircle
 10
47885.721552554365
 20
55500.0
 30
0.0
 40
500.0
  0
ARC
  5
1D4
330
17
100
AcDbEntity
  8
0
100
AcDbCircle
 10
39990.483861029614
 20
58500.00000000001
 30
0.0
 40
500.0
100
AcDbArc
 50
271.09053504426623
 51
448.90946495573377
  0
CIRCLE
  5
1D5
330
17
100
AcDbEntity
  8
0
100
AcDbCircle
 10
41990.483861029614
 20
58500.0
 30
0.0
 40
500.0
  0
CIRCLE
  5
1D6
330
17
100
AcDbEntity
  8
0
100
AcDbCircle
 10
43990.483861029614
 20
58500.0
 30
0.0
 40
500.0
  0
CIRCLE
  5
1D7
330
17
100
AcDbEntity
  8
0
100
AcDbCircle
 10
45990.483861029614
 20
58500.0
 30
0.0
 40
500.0
  0
CIRCLE
  5
1D8
330
17
100
AcDbEntity
  8
0
100
AcDbCircle
 10
47990.483861029614
 20
58500.0
 30
0.0
 40
500.0
  0
ARC
  5
1D9
330
17
100
AcDbEntity
  8
0
100
AcDbCircle
 10
40095.246169504855
 20
61500.00000000001
 30
0.0
 40
500.0
100
AcDbArc
 50
259.018482072635
 51
460.981517927365
  0
CIRCLE
  5
1DA
330
17
100
AcDbEntity
  8
0
100
AcDbCircle
 10
42095.246169504855
 20
61500.0
 30
0.0
 40
500.0
  0
CIRCLE
  5
1DB
330
17
100
AcDbEntity
  8
0
100
AcDbCircle
 10
44095.246169504855
 20
61500.0
 30
0.0
 40
500.0
  0
CIRCLE
  5
1DC
330
17
100
AcDbEntity
  8
0
100
AcDbCircle
 10
46095.246169504855
 20
61500.0
 30
0.0
 40
500.0
  0
ARC
  5
1DD
330
17
100
AcDbEntity
  8
0
100
AcDbCircle
 10
40200.008477980096
 20
64500.00000000001
 30
0.0
 40
500.0
100
AcDbArc
 50
246.42076151870748
 51
473.5792384812925
  0
CIRCLE
  5
1DE
330
17
100
AcDbEntity
  8
0
100
AcDbCircle
 10
42200.008477980096
 20
64500.0
 30
0.0
 40
500.0
  0
CIRCLE
  5
1DF
330
17
100
AcDbEntity
  8
0
100
AcDbCircle
 10
44200.008477980096
 20
64500.0
 30
0.0
 40
500.0
  0
CIRCLE
  5
1E0
330
17
100
AcDbEntity
  8
0
100
AcDbCircle
 10
46200.008477980096
 20
64500.0
 30
0.0
 40
500.0
  0
ARC
  5
1E1
330
17
100
AcDbEntity
  8
0
100
AcDbCircle
 10
40304.77078645534
 20
67500.0
 30
0.0
 40
500.0
100
AcDbArc
 50
232.44363692128658
 51
487.5563630787134
  0
CIRCLE
  5
1E2
330
17
100
AcDbEntity
  8
0
100
AcDbCircle
 10
42304.77078645534
 20
67500.0
 30
0.0
 40
500.0
  0
CIRCLE
  5
1E3
330
17
100
AcDbEntity
  8
0
100
AcDbCircle
 10
44304.77078645534
 20
67500.0
 30
0.0
 40
500.0
  0
CIRCLE
  5
1E4
330
17
100
AcDbEntity
  8
0
100
AcDbCircle
 10
46304.77078645534
 20
67500.0
 30
0.0
 40
500.0
  0
ARC
  5
1E5
330
17
100
AcDbEntity
  8
0
100
AcDbCircle
 10
40409.53309493058
 20
70500.0
 30
0.0
 40
500.0
100
AcDbArc
 50
215.0085752663633
 51
504.9914247336367
  0
CIRCLE
  5
1E6
330
17
100
AcDbEntity
  8
0
100
AcDbCircle
 10
42409.53309493058
 20
70500.0
 30
0.0
 40
500.0
  0
CIRCLE
  5
1E7
330
17
100
AcDbEntity
  8
0
100
AcDbCircle
 10
44409.53309493058
 20
70500.0
 30
0.0
 40
500.0
  0
CIRCLE
  5
1E8
330
17
100
AcDbEntity
  8
0
100
AcDbCircle
 10
46409.53309493058
 20
70500.0
 30
0.0
 40
500.0
  0
CIRCLE
  5
1E9
330
17
100
AcDbEntity
  8
0
100
AcDbCircle
 10
40514.29540340583
 20
73500.0
 30
0.0
 40
500.0
  0
CIRCLE
  5
1EA
330
17
100
AcDbEntity
  8
0
100
AcDbCircle
 10
42514.29540340583
 20
73500.0
 30
0.0
 40
500.0
  0
CIRCLE
  5
1EB
330
17
100
AcDbEntity
  8
0
100
AcDbCircle
 10
44514.29540340583
 20
73500.0
 30
0.0
 40
500.0
  0
CIRCLE
  5
1EC
330
17
100
AcDbEntity
  8
0
100
AcDbCircle
 10
46514.29540340583
 20
73500.0
 30
0.0
 40
500.0
  0
CIRCLE
  5
1ED
330
17
100
AcDbEntity
  8
0
100
AcDbCircle
 10
40619.057711881076
 20
76500.0
 30
0.0
 40
500.0
  0
CIRCLE
  5
1EE
330
17
100
AcDbEntity
  8
0
100
AcDbCircle
 10
42619.057711881076
 20
76500.0
 30
0.0
 40
500.0
  0
CIRCLE
  5
1EF
330
17
100
AcDbEntity
  8
0
100
AcDbCircle
 10
44619.057711881076
 20
76500.0
 30
0.0
 40
500.0
  0
CIRCLE
  5
1F0
330
17
100
AcDbEntity
  8
0
100
AcDbCircle
 10
46619.057711881076
 20
76500.0
 30
0.0
 40
500.0
  0
CIRCLE
  5
1F1
330
17
100
AcDbEntity
  8
0
100
AcDbCircle
 10
40723.82002035632
 20
79500.0
 30
0.0
 40
500.0
  0
CIRCLE
  5
1F2
330
17
100
AcDbEntity
  8
0
100
AcDbCircle
 10
42723.82002035632
 20
79500.0
 30
0.0
 40
500.0
  0
CIRCLE
  5
1F3
330
17
100
AcDbEntity
  8
0
100
AcDbCircle
 10
44723.82002035632
 20
79500.0
 30
0.0
 40
500.0
  0
CIRCLE
  5
1F4
330
17
100
AcDbEntity
  8
0
100
AcDbCircle
 10
46723.82002035632
 20
79500.0
 30
0.0
 40
500.0
  0
CIRCLE
  5
1F5
330
17
100
AcDbEntity
  8
0
100
AcDbCircle
 10
40828.58232883156
 20
82500.0
 30
0.0
 40
500.0
  0
CIRCLE
  5
1F6
330
17
100
AcDbEntity
  8
0
100
AcDbCircle
 10
42828.58232883156
 20
82500.0
 30
0.0
 40
500.0
  0
CIRCLE
  5
1F7
330
17
100
AcDbEntity
  8
0
100
AcDbCircle
 10
44828.58232883156
 20
82500.0
 30
0.0
 40
500.0
  0
CIRCLE
  5
1F8
330
17
100
AcDbEntity
  8
0
100
AcDbCircle
 10
46828.58232883156
 20
82500.0
 30
0.0
 40
500.0
  0
CIRCLE
  5
1F9
330
17
100
AcDbEntity
  8
0
100
AcDbCircle
 10
40933.34463730681
 20
85500.0
 30
0.0
 40
500.0
  0
CIRCLE
  5
1FA
330
17
100
AcDbEntity
  8
0
100
AcDbCircle
 10
42933.34463730681
 20
85500.0
 30
0.0
 40
500.0
  0
CIRCLE
  5
1FB
330
17
100
AcDbEntity
  8
0
100
AcDbCircle
 10
44933.34463730681
 20
85500.0
 30
0.0
 40
500.0
  0
CIRCLE
  5
1FC
330
17
100
AcDbEntity
  8
0
100
AcDbCircle
 10
46933.34463730681
 20
85500.0
 30
0.0
 40
500.0
  0
CIRCLE
  5
1FD
330
17
100
AcDbEntity
  8
0
100
AcDbCircle
 10
41038.10694578205
 20
88500.0
 30
0.0
 40
500.0
  0
CIRCLE
  5
1FE
330
17
100
AcDbEntity
  8
0
100
AcDbCircle
 10
43038.10694578205
 20
88500.0
 30
0.0
 40
500.0
  0
CIRCLE
  5
1FF
330
17
100
AcDbEntity
  8
0
100
AcDbCircle
 10
45038.10694578205
 20
88500.0
 30
0.0
 40
500.0
  0
CIRCLE
  5
200
330
17
100
AcDbEntity
  8
0
100
AcDbCircle
 10
47038.10694578205
 20
88500.0
 30
0.0
 40
500.0
  0
CIRCLE
  5
201
330
17
100
AcDbEntity
  8
0
100
AcDbCircle
 10
41142.86925425729
 20
91500.0
 30
0.0
 40
500.0
  0
CIRCLE
  5
202
330
17
100
AcDbEntity
  8
0
100
AcDbCircle
 10
43142.86925425729
 20
91500.0
 30
0.0
 40
500.0
  0
CIRCLE
  5
203
330
17
100
AcDbEntity
  8
0
100
AcDbCircle
 10
45142.86925425729
 20
91500.0
 30
0.0
 40
500.0
  0
CIRCLE
  5
204
330
17
100
AcDbEntity
  8
0
100
AcDbCircle
 10
47142.86925425729
 20
91500.0
 30
0.0
 40
500.0
  0
CIRCLE
  5
205
330
17
100
AcDbEntity
  8
0
100
AcDbCircle
 10
41247.63156273254
 20
94500.0
 30
0.0
 40
500.0
  0
CIRCLE
  5
206
330
17
100
AcDbEntity
  8
0
100
AcDbCircle
 10
43247.63156273254
 20
94500.0
 30
0.0
 40
500.0
  0
CIRCLE
  5
207
330
17
100
AcDbEntity
  8
0
100
AcDbCircle
 10
45247.63156273254
 20
94500.0
 30
0.0
 40
500.0
  0
CIRCLE
  5
208
330
17
100
AcDbEntity
  8
0
100
AcDbCircle
 10
47247.63156273254
 20
94500.0
 30
0.0
 40
500.0
  0
CIRCLE
  5
209
330
17
100
AcDbEntity
  8
0
100
AcDbCircle
 10
41352.39387120778
 20
97500.0
 30
0.0
 40
500.0
  0
CIRCLE
  5
20A
330
17
100
AcDbEntity
  8
0
100
AcDbCircle
 10
43352.39387120778
 20
97500.0
 30
0.0
 40
500.0
  0
CIRCLE
  5
20B
330
17
100
AcDbEntity
  8
0
100
AcDbCircle
 10
45352.39387120778
 20
97500.0
 30
0.0
 40
500.0
  0
CIRCLE
  5
20C
330
17
100
AcDbEntity
  8
0
100
AcDbCircle
 10
47352.39387120778
 20
97500.0
 30
0.0
 40
500.0
  0
LWPOLYLINE
  5
20D
330
17
100
AcDbEntity
  8
0
100
AcDbPolyline
 90
2
 70
0
 43
0.0
 10
39999.99999999997
 20
0.0
 10
39999.99999999997
 20
1000.0
  0
LWPOLYLINE
  5
20E
330
17
100
AcDbEntity
  8
0
100
AcDbPolyline
 90
2
 70
0
 43
0.0
 10
39999.99999999997
 20
2000.0
 10
39999.99999999997
 20
4011.0983138473093
  0
LWPOLYLINE
  5
20F
330
17
100
AcDbEntity
  8
0
100
AcDbPolyline
 90
2
 70
0
 43
0.0
 10
39999.99999999997
 20
4988.901686152691
 10
39999.99999999997
 20
7046.018243877843
  0
LWPOLYLINE
  5
210
330
17
100
AcDbEntity
  8
0
100
AcDbPolyline
 90
2
 70
0
 43
0.0
 10
39999.99999999997
 20
7953.981756122157
 10
39999.99999999997
 20
10111.125047725567
  0
LWPOLYLINE
  5
211
330
17
100
AcDbEntity
  8
0
100
AcDbPolyline
 90
2
 70
0
 43
0.0
 10
39999.99999999997
 20
10888.874952274433
 10
39999.99999999997
 20
13227.240509666473
  0
LWPOLYLINE
  5
212
330
17
100
AcDbEntity
  8
0
100
AcDbPolyline
 90
2
 70
0
 43
0.0
 10
39999.99999999997
 20
13772.759490333527
 10
39999.999999999985
 20
46242.45054615543
  0
LWPOLYLINE
  5
213
330
17
100
AcDbEntity
  8
0
100
AcDbPolyline
 90
2
 70
0
 43
0.0
 10
39999.999999999985
 20
46757.549453844586
 10
39999.999999999985
 20
49119.01236832715
  0
LWPOLYLINE
  5
214
330
17
100
AcDbEntity
  8
0
100
AcDbPolyline
 90
2
 70
0
 43
0.0
 10
39999.999999999985
 20
49880.98763167286
 10
39999.999999999985
 20
52050.53237352885
  0
LWPOLYLINE
  5
215
330
17
100
AcDbEntity
  8
0
100
AcDbPolyline
 90
2
 70
0
 43
0.0
 10
39999.999999999985
 20
52949.46762647117
 10
39999.999999999985
 20
55013.23472140115
  0
LWPOLYLINE
  5
216
330
17
100
AcDbEntity
  8
0
100
AcDbPolyline
 90
2
 70
0
 43
0.0
 10
39999.999999999985
 20
55986.76527859886
 10
39999.999999999985
 20
58000.090565102946
  0
LWPOLYLINE
  5
217
330
17
100
AcDbEntity
  8
0
100
AcDbPolyline
 90
2
 70
0
 43
0.0
 10
39999.999999999985
 20
58999.90943489707
 10
39999.999999999985
 20
61009.155658895164
  0
LWPOLYLINE
  5
218
330
17
100
AcDbEntity
  8
0
100
AcDbPolyline
 90
2
 70
0
 43
0.0
 10
39999.999999999985
 20
61990.84434110485
 10
39999.999999999985
 20
64041.74613069165
  0
LWPOLYLINE
  5
219
330
17
100
AcDbEntity
  8
0
100
AcDbPolyline
 90
2
 70
0
 43
0.0
 10
39999.999999999985
 20
64958.25386930836
 10
39999.999999999985
 20
67103.62294753178
  0
LWPOLYLINE
  5
21A
330
17
100
AcDbEntity
  8
0
100
AcDbPolyline
 90
2
 70
0
 43
0.0
 10
39999.999999999985
 20
67896.37705246822
 10
39999.999999999985
 20
70213.15048517285
  0
LWPOLYLINE
  5
21B
330
17
100
AcDbEntity
  8
0
100
AcDbPolyline
 90
2
 70
0
 43
0.0
 10
39999.999999999985
 20
70786.84951482715
 10
40000.0
 20
100000.0
  0
LWPOLYLINE
  5
21C
330
17
100
AcDbEntity
  8
0
100
AcDbPolyline
 90
2
 70
0
 43
0.0
 10
49999.99999999997
 20
0.0
 10
50000.0
 20
100000.0
  0
LWPOLYLINE
  5
21D
330
17
100
AcDbEntity
  8
0
100
AcDbPolyline
 90
2
 70
0
 43
0.0
 10
0.0
 20
0.0
 10
0.0
 20
-20000.0
  0
LWPOLYLINE
  5
21E
330
17
100
AcDbEntity
  8
0
100
AcDbPolyline
 90
2
 70
0
 43
0.0
 10
10000.0
 20
0.0
 10
10000.0
 20
-20000.0
  0
ARC
  5
21F
330
17
100
AcDbEntity
  8
0
100
AcDbCircle
 10
5000.0
 20
-20000.0
 30
0.0
 40
5000.0
100
AcDbArc
 50
-180.0
 51
0.0
  0
ARC
  5
220
330
17
100
AcDbEntity
  8
0
100
AcDbCircle
 10
-10000.0
 20
-20000.0
 30
0.0
 40
10000.0
100
AcDbArc
 50
-0.0
 51
0.0
  0
ARC
  5
221
330
17
100
AcDbEntity
  8
0
100
AcDbCircle
 10
20000.0
 20
-20000.0
 30
0.0
 40
10000.0
100
AcDbArc
 50
-180.0
 51
-180.0
  0
LWPOLYLINE
  5
222
330
17
100
AcDbEntity
  8
0
100
AcDbPolyline
 90
2
 70
0
 43
0.0
 10
75000.0
 20
125000.0
 10
95000.0
 20
125000.0
  0
LWPOLYLINE
  5
223
330
17
100
AcDbEntity
  8
0
100
AcDbPolyline
 90
2
 70
0
 43
0.0
 10
75000.0
 20
128000.0
 10
95000.0
 20
128000.0
  0
ARC
  5
224
330
17
100
AcDbEntity
  8
0
100
AcDbCircle
 10
104630.6801421291
 20
126500.0
 30
0.0
 40
5000.0
100
AcDbArc
 50
-129.9445051898149
 51
129.9445051898149
  0
ARC
  5
225
330
17
100
AcDbEntity
  8
0
100
AcDbCircle
 10
95000.0
 20
115000.0
 30
0.0
 40
10000.0
100
AcDbArc
 50
50.05549481018511
 51
90.0
  0
ARC
  5
226
330
17
100
AcDbEntity
  8
0
100
AcDbCircle
 10
95000.0
 20
138000.0
 30
0.0
 40
10000.0
100
AcDbArc
 50
-90.0
 51
-50.05549481018511
  0
LWPOLYLINE
  5
227
330
17
100
AcDbEntity
  8
0
100
AcDbPolyline
 90
2
 70
0
 43
0.0
 10
75000.0
 20
125000.0
 10
70000.0
 20
125000.0
  0
LWPOLYLINE
  5
228
330
17
100
AcDbEntity
  8
0
100
AcDbPolyline
 90
2
 70
0
 43
0.0
 10
75000.0
 20
128000.0
 10
70000.0
 20
128000.0
  0
ARC
  5
229
330
17
100
AcDbEntity
  8
0
100
AcDbCircle
 10
70000.0
 20
105000.0
 30
0.0
 40
20000.0
100
AcDbArc
 50
90.0
 51
180.0
  0
ARC
  5
22A
330
17
100
AcDbEntity
  8
0
100
AcDbCircle
 10
70000.0
 20
105000.0
 30
0.0
 40
23000.0
100
AcDbArc
 50
90.0
 51
180.0
  0
LWPOLYLINE
  5
22B
330
17
100
AcDbEntity
  8
0
100
AcDbPolyline
 90
2
 70
0
 43
0.0
 10
15000.0
 20
125000.0
 10
-5000.0
 20
125000.0
  0
LWPOLYLINE
  5
22C
330
17
100
AcDbEntity
  8
0
100
AcDbPolyline
 90
2
 70
0
 43
0.0
 10
15000.0
 20
132000.0
 10
-5000.0
 20
132000.0
  0
ARC
  5
22D
330
17
100
AcDbEntity
  8
0
100
AcDbCircle
 10
-11538.348415311011
 20
128500.0
 30
0.0
 40
5000.0
100
AcDbArc
 50
64.15806723683288
 51
295.84193276316716
  0
ARC
  5
22E
330
17
100
AcDbEntity
  8
0
100
AcDbCircle
 10
-5000.0
 20
115000.0
 30
0.0
 40
10000.0
100
AcDbArc
 50
90.0
 51
115.84193276316712
  0
ARC
  5
22F
330
17
100
AcDbEntity
  8
0
100
AcDbCircle
 10
-5000.0
 20
142000.0
 30
0.0
 40
10000.0
100
AcDbArc
 50
244.15806723683286
 51
270.0
  0
LWPOLYLINE
  5
230
330
17
100
AcDbEntity
  8
0
100
AcDbPolyline
 90
2
 70
0
 43
0.0
 10
15000.0
 20
125000.0
 10
20000.0
 20
125000.0
  0
LWPOLYLINE
  5
231
330
17
100
AcDbEntity
  8
0
100
AcDbPolyline
 90
2
 70
0
 43
0.0
 10
15000.0
 20
132000.0
 10
20000.0
 20
132000.0
  0
ARC
  5
232
330
17
100
AcDbEntity
  8
0
100
AcDbCircle
 10
20000.0
 20
105000.0
 30
0.0
 40
20000.0
100
AcDbArc
 50
0.0
 51
90.0
  0
ARC
  5
233
330
17
100
AcDbEntity
  8
0
100
AcDbCircle
 10
20000.0
 20
105000.0
 30
0.0
 40
27000.0
100
AcDbArc
 50
0.0
 51
90.0
  0
LWPOLYLINE
  5
234
330
17
100
AcDbEntity
  8
0
100
AcDbPolyline
 90
2
 70
0
 43
0.0
 10
40000.0
 20
100000.0
 10
40000.0
 20
105000.0
  0
LWPOLYLINE
  5
235
330
17
100
AcDbEntity
  8
0
100
AcDbPolyline
 90
2
 70
0
 43
0.0
 10
50000.0
 20
100000.0
 10
50000.0
 20
105000.0
  0
ENDSEC
  0
SECTION
  2
OBJECTS
  0
DICTIONARY
  5
A
330
0
100
AcDbDictionary
281
1
  3
ACAD_COLOR
350
B
  3
ACAD_GROUP
350
C
  3
ACAD_LAYOUT
350
D
  3
ACAD_MATERIAL
350
E
  3
ACAD_MLEADERSTYLE
350
F
  3
ACAD_MLINESTYLE
350
10
  3
ACAD_PLOTSETTINGS
350
11
  3
ACAD_PLOTSTYLENAME
350
12
  3
ACAD_SCALELIST
350
14
  3
ACAD_TABLESTYLE
350
15
  3
ACAD_VISUALSTYLE
350
16
  0
DICTIONARY
  5
B
330
A
100
AcDbDictionary
281
1
  0
DICTIONARY
  5
C
330
A
100
AcDbDictionary
281
1
  0
DICTIONARY
  5
D
330
A
100
AcDbDictionary
281
1
  3
Model
350
1A
  3
Layout1
350
1E
  0
DICTIONARY
  5
E
330
A
100
AcDbDictionary
281
1
  3
ByBlock
350
1F
  3
ByLayer
350
20
  3
Global
350
21
  0
DICTIONARY
  5
F
330
A
100
AcDbDictionary
281
1
  3
Standard
350
2C
  0
DICTIONARY
  5
10
330
A
100
AcDbDictionary
281
1
  3
Standard
350
22
  0
DICTIONARY
  5
11
330
A
100
AcDbDictionary
281
1
  0
ACDBDICTIONARYWDFLT
  5
12
330
A
100
AcDbDictionary
281
1
  3
Normal
350
13
100
AcDbDictionaryWithDefault
340
13
  0
ACDBPLACEHOLDER
  5
13
330
12
  0
DICTIONARY
  5
14
330
A
100
AcDbDictionary
281
1
  0
DICTIONARY
  5
15
330
A
100
AcDbDictionary
281
1
  0
DICTIONARY
  5
16
330
A
100
AcDbDictionary
281
1
  0
LAYOUT
  5
1A
330
D
100
AcDbPlotSettings
  1

  2
Adobe PDF
  4
A4
  6

 40
3.175
 41
3.175
 42
3.175
 43
3.175
 44
209.91
 45
297.03
 46
0.0
 47
0.0
 48
0.0
 49
0.0
140
0.0
141
0.0
142
1.0
143
1.0
 70
1024
 72
0
 73
1
 74
5
  7

 75
16
 76
0
 77
2
 78
300
147
1.0
148
0.0
149
0.0
100
AcDbLayout
  1
Model
 70
1
 71
0
 10
-3.175
 20
-3.175
 11
293.857
 21
206.735
 12
0.0
 22
0.0
 32
0.0
 14
29.068
 24
20.356
 34
0.0
 15
261.614
 25
183.204
 35
0.0
146
0.0
 13
0.0
 23
0.0
 33
0.0
 16
1.0
 26
0.0
 36
0.0
 17
0.0
 27
1.0
 37
0.0
 76
1
330
17
  0
LAYOUT
  5
1E
330
D
100
AcDbPlotSettings
  1

  2
Adobe PDF
  4
A4
  6

 40
3.175
 41
3.175
 42
3.175
 43
3.175
 44
209.91
 45
297.03
 46
0.0
 47
0.0
 48
0.0
 49
0.0
140
0.0
141
0.0
142
1.0
143
1.0
 70
0
 72
0
 73
1
 74
5
  7

 75
16
 76
0
 77
2
 78
300
147
1.0
148
0.0
149
0.0
100
AcDbLayout
  1
Layout1
 70
1
 71
1
 10
-3.175
 20
-3.175
 11
293.857
 21
206.735
 12
0.0
 22
0.0
 32
0.0
 14
29.068
 24
20.356
 34
0.0
 15
261.614
 25
183.204
 35
0.0
146
0.0
 13
0.0
 23
0.0
 33
0.0
 16
1.0
 26
0.0
 36
0.0
 17
0.0
 27
1.0
 37
0.0
 76
1
330
1B
  0
MATERIAL
  5
1F
102
{ACAD_REACTORS
330
E
102
}
330
E
100
AcDbMaterial
  1
ByBlock
  2

 70
0
 40
1.0
 71
1
 41
1.0
 91
-1023410177
 42
1.0
 72
1
  3

 73
1
 74
1
 75
1
 44
0.5
 73
0
 45
1.0
 46
1.0
 77
1
  4

 78
1
 79
1
170
1
 48
1.0
171
1
  6

172
1
173
1
174
1
140
1.0
141
1.0
175
1
  7

176
1
177
1
178
1
143
1.0
179
1
  8

270
1
271
1
272
1
145
1.0
146
1.0
273
1
  9

274
1
275
1
276
1
 42
1.0
 72
1
  3

 73
1
 74
1
 75
1
 94
63
  0
MATERIAL
  5
20
102
{ACAD_REACTORS
330
E
102
}
330
E
100
AcDbMaterial
  1
ByLayer
  2

 70
0
 40
1.0
 71
1
 41
1.0
 91
-1023410177
 42
1.0
 72
1
  3

 73
1
 74
1
 75
1
 44
0.5
 73
0
 45
1.0
 46
1.0
 77
1
  4

 78
1
 79
1
170
1
 48
1.0
171
1
  6

172
1
173
1
174
1
140
1.0
141
1.0
175
1
  7

176
1
177
1
178
1
143
1.0
179
1
  8

270
1
271
1
272
1
145
1.0
146
1.0
273
1
  9

274
1
275
1
276
1
 42
1.0
 72
1
  3

 73
1
 74
1
 75
1
 94
63
  0
MATERIAL
  5
21
102
{ACAD_REACTORS
330
E
102
}
330
E
100
AcDbMaterial
  1
Global
  2

 70
0
 40
1.0
 71
1
 41
1.0
 91
-1023410177
 42
1.0
 72
1
  3

 73
1
 74
1
 75
1
 44
0.5
 73
0
 45
1.0
 46
1.0
 77
1
  4

 78
1
 79
1
170
1
 48
1.0
171
1
  6

172
1
173
1
174
1
140
1.0
141
1.0
175
1
  7

176
1
177
1
178
1
143
1.0
179
1
  8

270
1
271
1
272
1
145
1.0
146
1.0
273
1
  9

274
1
275
1
276
1
 42
1.0
 72
1
  3

 73
1
 74
1
 75
1
 94
63
  0
MLINESTYLE
  5
22
102
{ACAD_REACTORS
330
10
102
}
330
10
100
AcDbMlineStyle
  2
Standard
 70
0
  3

 62
256
 51
90.0
 52
90.0
 71
2
 49
0.5
 62
256
  6
BYLAYER
 49
-0.5
 62
256
  6
BYLAYER
  0
MLEADERSTYLE
  5
2C
102
{ACAD_REACTORS
330
F
102
}
330
F
100
AcDbMLeaderStyle
179
2
170
2
171
1
172
0
 90
2
 40
0.0
 41
0.0
173
1
 91
-1056964608
 92
-2
290
1
 42
2.0
291
1
 43
8.0
  3
Standard
 44
4.0
300

342
29
174
1
175
1
176
0
178
1
 93
-1056964608
 45
4.0
292
0
297
0
 46
4.0
 94
-1056964608
 47
1.0
 49
0.0
140
1.0
294
1
141
0.0
177
0
142
1.0
295
0
296
0
143
3.75
271
0
272
9
272
9
  0
ENDSEC
  0
EOF
